<?xml version="1.0" encoding="UTF-8"?><svg id="uuid-a41429a3-a79a-40a0-a543-e9e38b5e1c9d" xmlns="http://www.w3.org/2000/svg" viewBox="0 0 2206.74231 665.01003"><path id="uuid-1ef726d3-0fca-4b61-8625-eeb34760acdf" d="M1369.01951,520.05835c-128.2375,94.52121-314.10994,144.95168-474.14262,144.95168-224.39167,0-426.40171-82.99417-579.23015-221.02962-12.00724-10.85461-1.24879-25.64752,13.15997-17.19446,164.93164,95.96207,368.86302,153.693,579.51838,153.693,142.06979,0,298.35631-29.39382,442.05917-90.39067,21.70917-9.22162,39.86415,14.21661,18.63524,29.97012" fill="#f90"/><path id="uuid-0eb6803d-fc35-4241-8557-1f61b4125aa1" d="M1422.33187,459.0615c-16.32993-20.94065-108.3535-9.89397-149.65852-4.99501-12.58365,1.53694-14.50476-9.4137-3.16998-17.29051,73.29229-51.58315,193.5571-36.69417,207.5816-19.40372,14.0244,17.38656-3.65023,137.93946-72.52389,195.47818-10.56638,8.83737-20.65251,4.13053-15.94562-7.58861,15.46525-38.61534,50.14227-125.16362,33.7164-146.20036" fill="#f90"/><path id="uuid-e2d84ce1-25f5-432d-ae39-360ce28b6ef5" d="M1275.55507,72.61989V22.47758c0-7.58859,5.76344-12.67965,12.6797-12.67965h224.48761c7.20441,0,12.96785,5.18714,12.96785,12.67965v42.93796c-.09605,7.20434-6.14775,16.61803-16.90623,31.50703l-116.32631,166.08442c43.22612-1.05658,88.85371,5.37924,128.0454,27.4726,8.83737,4.99501,11.23884,12.29541,11.91119,19.49982v53.50435c0,7.3004-8.06886,15.84951-16.52203,11.43088-69.06576-36.21392-160.80119-40.1523-237.16741,.38426-7.78071,4.22656-15.94562-4.22656-15.94562-11.52696v-50.81473c0-8.16494,.09605-22.09342,8.26096-34.48488l134.76945-193.26883h-117.28692c-7.2043,0-12.96785-5.09103-12.96785-12.58362" fill="#221f1f"/><path id="uuid-f5b3dcf7-bf3d-4bb0-8630-c66ff54702aa" d="M456.66002,385.481h-68.29725c-6.53189-.48025-11.71906-5.37921-12.19936-11.62304V23.34217c0-7.01224,5.85954-12.58366,13.15997-12.58366h63.68647c6.62808,.28799,11.91121,5.37924,12.39155,11.71907v45.81976h1.24876C483.2682,24.01451,514.48703,3.36203,556.56049,3.36203c42.74581,0,69.44996,20.65248,88.66155,64.93531,16.52197-44.28283,54.0807-64.93531,94.32905-64.93531,28.62531,0,59.94025,11.81514,79.05579,38.32717,21.61306,29.48982,17.19438,72.33171,17.19438,109.89048l-.09599,221.22174c0,7.01225-5.85954,12.67961-13.15995,12.67961h-68.20126c-6.82004-.48025-12.29539-5.95554-12.29539-12.67961V187.02507c0-14.79293,1.34475-51.67923-1.92116-65.70375-5.09109-23.53417-20.3643-30.16224-40.1523-30.16224-16.52203,0-33.81245,11.04669-40.82471,28.72141-7.01225,17.67468-6.33985,47.26051-6.33985,67.14457v185.7763c0,7.01225-5.85954,12.67961-13.15995,12.67961h-68.2012c-6.91615-.48025-12.29544-5.95554-12.29544-12.67961l-.09611-185.77629c0-39.09561,6.43584-96.63443-42.07347-96.63443-49.08572,0-47.16455,56.09789-47.16455,96.63443v185.77632c0,7.01225-5.85954,12.67961-13.15997,12.67961" fill="#221f1f"/><path id="uuid-07595336-9be9-4166-b4d9-f822ddd8c769" d="M1718.95917,3.36203c101.34131,0,156.19046,87.0286,156.19046,197.68751,0,106.9126-60.61271,191.73186-156.19035,191.73186-99.51625,0-153.69294-87.02859-153.69294-195.47813,0-109.12198,54.84916-193.94124,153.69294-193.94124m.5763,71.5633c-50.33437,0-53.50435,68.5854-53.50435,111.33129,0,42.84189-.67246,134.28914,52.92805,134.28914,52.92794,0,55.42546-73.77254,55.42546-118.72781,0-29.58581-1.24876-64.9352-10.18218-92.98419-7.68466-24.39868-22.95781-33.90844-44.66698-33.90844" fill="#221f1f"/><path id="uuid-8ec8fbb2-2c9d-4f25-b19e-c2253ef97c6f" d="M2006.557,385.481h-68.0091c-6.8201-.48025-12.2955-5.95554-12.2955-12.67961l-.09594-350.61198c.5763-6.4359,6.2438-11.43089,13.16006-11.43089h63.30233c5.95554,.28799,10.85442,4.32262,12.19934,9.79793v53.60037h1.24876c19.1156-47.93296,45.91585-70.79478,93.08024-70.79478,30.64247,0,60.51655,11.04669,79.7283,41.30496,17.86684,28.04896,17.86684,75.21351,17.86684,109.12194v220.64544c-.7684,6.14764-6.4359,11.04663-13.15983,11.04663h-68.48946c-6.2438-.48025-11.43094-5.09103-12.1034-11.04663V184.04729c0-38.32716,4.41874-94.42512-42.74587-94.42512-16.61808,0-31.89123,11.1428-39.47995,28.04897-9.60566,21.421-10.85442,42.74588-10.85442,66.37616v188.75413c-.09594,7.01225-6.0517,12.67961-13.35216,12.67961" fill="#221f1f"/><g id="uuid-40bc4726-e656-497b-ac62-564ca2335d78"><path id="uuid-10f1eaf9-baaf-458f-bec6-ee364a29454f" d="M1096.59886,218.05182v-14.79292c-49.3739,0-101.5334,10.56638-101.5334,68.77753,0,29.48982,15.2732,49.46995,41.49706,49.46995,19.21162,0,36.40599-11.81514,47.26062-31.02678,13.44807-23.6303,12.77572-45.81972,12.77572-72.42779m68.87361,166.46858c-4.51473,4.03446-11.04674,4.32263-16.1378,1.63304-22.66965-18.82736-26.70413-27.56865-39.19169-45.53151-37.46265,38.23111-63.97462,49.66196-112.58005,49.66196-57.44275,0-102.20574-35.44541-102.20574-106.43226,0-55.42554,30.06617-93.17637,72.81199-111.61951,37.07841-16.32993,88.85372-19.21162,128.42966-23.72634v-8.83734c0-16.23386,1.24876-35.44548-8.261-49.46989-8.35711-12.58365-24.30269-17.77079-38.3272-17.77079-26.03169,0-49.27778,13.35207-54.94519,41.01678-1.15272,6.14776-5.66745,12.19942-11.81514,12.48758l-66.28004-7.10832c-5.57138-1.24869-11.7191-5.76349-10.18217-14.31258C922.06133,24.20669,994.58515,0,1059.52045,0c33.23603,0,76.65427,8.83734,102.87812,34.00454,33.23613,31.02676,30.06617,72.42778,30.06617,117.47905v106.43231c0,31.98737,13.25608,46.01179,25.74362,63.3023,4.41866,6.14764,5.37924,13.54412-.19213,18.15493-13.9284,11.62307-38.71139,33.23613-52.35169,45.33944l-.19207-.19235" fill="#221f1f"/></g><path id="uuid-3923a29e-2040-4d72-bad3-7b16e33947cf" d="M201.24168,218.05182v-14.79292c-49.3739,0-101.5334,10.56638-101.5334,68.77753,0,29.48982,15.2732,49.46995,41.49706,49.46995,19.21162,0,36.40599-11.81514,47.26062-31.02678,13.44807-23.6303,12.77572-45.81972,12.77572-72.42779m68.87361,166.46858c-4.51473,4.03446-11.04674,4.32263-16.1378,1.63304-22.66965-18.82736-26.70413-27.56865-39.19169-45.53151-37.46265,38.23111-63.97462,49.66196-112.58005,49.66196C44.76299,390.28388,0,354.83847,0,283.85163c0-55.42554,30.06617-93.17637,72.81199-111.61951,37.07841-16.32993,88.85372-19.21162,128.42966-23.72634v-8.83734c0-16.23386,1.24876-35.44548-8.261-49.46989-8.35711-12.58365-24.30269-17.77079-38.3272-17.77079-26.03169,0-49.27778,13.35207-54.94519,41.01678-1.15272,6.14776-5.66745,12.19942-11.81514,12.48758l-66.28004-7.10832c-5.57138-1.24869-11.7191-5.76349-10.18217-14.31258C26.70415,24.20669,99.22796,0,164.16326,0c33.23603,0,76.65427,8.83734,102.87812,34.00454,33.23613,31.02676,30.06617,72.42778,30.06617,117.47905v106.43231c0,31.98737,13.25608,46.01179,25.74362,63.3023,4.41866,6.14764,5.37924,13.54412-.19213,18.15493-13.9284,11.62307-38.71139,33.23613-52.35169,45.33944l-.19207-.19235" fill="#221f1f"/></svg>