<?xml version="1.0" encoding="UTF-8"?><svg id="uuid-1cf90e33-1c07-4c8d-9281-32a75f202e3d" xmlns="http://www.w3.org/2000/svg" viewBox="0 0 2047.95172 1016.42125"><path d="M1981.31037,692.89932c-381.08521,156.66031-628.09862,214.22404-975.66599,214.22404S411.06405,849.55963,29.97884,692.89932c-27.68871-10.92979-42.26176,14.57305-16.75892,31.33197,150.10225,96.91115,498.3981,292.18995,992.42446,292.18995s843.05113-195.2788,992.42491-292.18995c25.50284-16.03045,10.92979-42.26176-16.75892-31.33197Zm61.76069-470.9789c-22.5885-40.80481-77.96592-67.7646-140.62986-67.7646-118.77073,1.45695-196.7362,63.39242-196.7362,145.73007,0,65.57873,80.88026,84.52397,122.41355,94.72484,20.40218,5.10066,61.93547,15.30197,62.66394,41.53329,1.45739,28.41763-31.33197,43.71916-64.12134,43.71916-34.24676,0-56.10634-13.84413-75.05113-38.6185-8.74392-10.92979-18.94479-13.84413-32.06045-9.47239-15.30197,4.37218-32.06089,13.11566-48.09134,24.04545-9.47239,6.55805-13.11566,16.75892-8.015,29.1461,26.23132,62.66439,96.18223,82.33765,156.66031,82.33765,95.45331,0,178.51988-41.53329,198.92207-126.05681,20.40218-83.06613-47.36242-113.66963-108.56941-131.15747-40.07589-11.65826-69.95047-21.13066-67.7646-48.09089,2.18587-28.41763,67.03613-46.63394,111.48376,5.10066,10.92979,13.11566,22.5885,14.57305,35.70415,9.47239,13.84413-5.10066,36.43263-15.30197,43.71916-20.40218,15.30153-9.47239,18.21631-18.21631,9.47239-34.24676ZM19.55871,562.07719H104.08224c13.84458,0,23.31697-2.91479,32.78937-18.94523,10.20131-17.4874,34.97524-61.20655,56.83481-98.3681h201.83685s2.18587,69.222,2.91479,94.72484c.72847,13.84458,8.74392,22.5885,26.96023,22.5885h74.32265c12.38718,0,24.04545-5.82913,23.31697-23.31697-2.18587-72.13678-20.40218-426.26176-26.96023-509.32833-1.45739-20.40218-11.65871-29.1461-34.97524-29.1461-22.5885-.72847-48.09134,0-66.30765,1.45739-25.50284,1.45739-46.6335,3.64326-66.30721,26.96023C265.11472,103.75453,119.38421,328.90836,4.25719,533.65956c-8.015,14.57305-2.18587,28.41763,15.30153,28.41763ZM382.42761,127.0715c3.64326-6.55805,5.10066,.72847,5.10066,.72847,2.18587,66.30765,8.74392,220.05317,8.74392,220.05317H240.34036c34.97524-65.57873,96.18223-160.30357,142.08725-220.78164Zm1038.2063,441.48324c127.5142,0,221.51056-83.79505,247.0134-206.20859,26.23132-122.41355-32.06089-206.20859-159.57509-206.20859-126.78528,0-220.78164,83.79505-247.01296,206.20859-25.50284,122.41355,32.78937,206.20859,159.57465,206.20859Zm-37.88958-206.93751c17.4874-61.93547,47.36242-120.22768,118.77028-120.22768s64.12134,58.29221,46.6335,120.22768c-18.21631,61.93547-48.81937,120.22768-119.49876,120.22768-71.40831,0-64.85026-57.56329-45.90502-120.22768Zm-532.76183,153.06863c21.85958,32.78937,56.83481,53.92002,110.75528,54.64894,45.17655,.72847,84.52352-14.57305,104.19723-39.34742,2.18587-2.91434,4.37174-1.45739,3.64326,1.45739-26.23176,90.3531-81.60918,115.12702-124.59986,115.12702-28.41718,0-48.81981-11.65826-59.02068-18.21631-16.03045-9.47239-21.1311-10.20087-35.70415-6.55761-16.03045,4.37174-34.97524,11.65826-50.27676,21.85958-18.21631,12.38718-14.57305,24.77392-8.01545,35.70371,34.24676,55.37786,113.67007,69.222,160.30357,69.222,115.12702,0,196.00772-79.42331,234.62622-232.44035,30.6035-120.95615,59.02068-235.3547,77.96592-316.96387,4.37174-19.67371-7.28653-32.78937-22.5885-32.78937-10.92979,0-42.99024,0-53.19155,.72892-17.4874,.72847-27.68871,9.47239-32.06045,24.04545-.72892,3.64326-2.18587,7.28653-4.37218,16.03045-.72847,3.64326-2.18587,3.64326-3.64326,.72847-7.28653-14.57305-40.07589-47.36242-96.9107-47.36242-103.46876,0-174.87662,99.82549-204.7512,192.36446-18.94523,58.29221-20.40218,125.32833,3.64326,161.76096Zm97.63918-149.37422c22.5885-79.42286,61.20699-120.22768,113.67007-118.77028,67.03613,2.18587,53.19155,67.7646,38.6185,118.04181-22.5885,76.50852-57.56373,117.31333-112.21268,112.94115-56.10634-5.10066-52.46308-69.95091-40.07589-112.21268Zm-383.52591,197.39218h77.96592c13.84413,0,21.13066-6.55761,23.31697-18.21631,12.38718-59.02068,28.41718-138.44399,33.51784-166.1327,8.01545-40.80437,24.77437-72.86526,40.80481-85.25244,15.30153-11.65826,36.43263-19.67371,78.69439-21.85958,18.94479-.72847,26.23132-6.55761,36.43263-21.13066,16.03-25.50329,30.60305-44.44807,53.1911-65.57918,7.28653-6.55761,2.91479-17.4874-8.74392-17.4874-65.57873,0-128.24268,0-174.87662,42.99024-.72847,.72892-2.91434,.72892-2.18587-1.45739,.72892-3.64326,2.91479-11.65826,5.10066-21.13066,2.91479-10.92979-3.64326-20.40218-16.03045-20.40218-19.67371,0-40.07589,0-64.12134,.72847-14.57305,0-22.58805,5.82913-26.23132,21.85958-7.28653,32.78937-57.56373,280.53125-72.13678,354.8539-2.18587,10.20131,6.55805,18.21631,15.30197,18.21631Z" fill="#ee3224"/></svg>