<?xml version="1.0" encoding="UTF-8"?><svg id="uuid-9ad2090c-2256-4df0-9c6d-e0ca0c53c0dc" xmlns="http://www.w3.org/2000/svg" viewBox="0 0 2012.17011 2012.10053"><path d="M2012.17011,1006.04972c0,555.92843-450.68541,1006.0498-1005.74334,1006.0498C450.7397,2012.8805,0,1561.9863,0,1006.04972S450.68541,0,1005.74334,0c555.68706,0,1006.42676,450.82378,1006.42676,1006.04972" fill="#4c12a1"/><path d="M332.18763,1175.74293c63.15276,0,124.17954-35.48687,151.17028-94.4202l-66.02736-34.09835c-15.60653,34.80618-43.97761,57.51221-85.14292,57.51221-53.95452,0-92.26973-41.18435-92.26973-98.6695,0-56.80181,38.31521-98.69946,92.26973-98.69946,41.16267,0,70.25233,22.73325,85.16734,57.51229l65.99757-34.07129c-26.27216-58.92787-87.29621-94.4418-151.20016-94.4418-94.36864,0-170.31051,76.67395-170.31051,169.70025,0,92.99907,75.94187,169.67311,170.3403,169.67311l.00546,.00273Zm324.35523,0c38.31529,0,72.37847-18.45399,97.93469-41.89218v4.98701c-5.69211,11.33812-11.35169,15.61738-18.45399,23.41113v5.70022h63.87151v-323.78851h-74.50453v187.41654c0,43.31049-28.40086,73.83741-68.84495,73.83741-39.03396,0-69.56089-29.10861-69.56089-73.80754v-187.47083h-74.5344v192.43069c0,84.46778,56.05062,139.14345,144.06541,139.14345l.02714,.03261Zm190.20433-7.79383h74.50726v-194.56486c0-37.61028,31.24551-68.13993,68.84221-68.13993,12.79168,0,24.86469,1.41831,34.09297,7.086v-72.42184c-11.22689-2.59257-22.58942-3.77485-34.09297-3.54164-38.31802,0-72.37847,14.2018-97.93469,39.76613v-4.95995c4.97352-9.2392,11.35442-14.2018,18.45399-19.89937v-6.37544h-63.87151l.00273,323.05088Zm224.98337,0h74.53432v-194.56486c0-37.61028,31.2158-68.13993,68.8423-68.13993,12.76454,0,24.83481,1.41831,34.06045,7.086v-72.42184c-11.2134-2.59257-22.56774-3.7722-34.06045-3.54164-38.34517,0-72.40562,14.2018-97.95637,39.76613v-4.95995c4.97079-9.2392,11.35169-14.2018,18.45391-19.89937v-6.37544h-63.87143l-.00273,323.05088Zm361.26314,148.32845c49.66698,0,92.26691-23.41113,118.51184-59.63562,16.32521-23.41386,25.58071-51.07718,25.58071-86.59384v-325.87939h-74.53167v187.41654c0,43.30776-28.40095,73.8375-68.84503,73.8375-39.75255,0-68.86936-28.40095-68.86936-73.81035v-187.4681h-74.4773v192.42804c0,88.74969,63.15002,139.14619,139.81586,139.14619,42.59993,0,75.93906-15.62011,100.77942-39.03123v4.96259c-5.66231,8.50158-12.76181,14.90963-20.58278,21.9929,0,56.09398-34.77912,81.66369-73.09698,81.66369-40.44143,0-63.15027-20.60711-70.25241-50.42629h-73.1242c.71594,51.8446,50.41536,121.39737,139.12169,121.39737h-.02979Zm306.61735-140.55638c66.68901,0,127.73739-41.89483,127.73739-107.9087,0-58.92779-31.93439-84.50031-88.70086-100.08243l-29.11945-8.56117c-28.37115-7.79375-47.54092-15.61738-47.54092-33.36081,0-13.49132,11.35161-25.56706,35.47065-25.56706,22.01715,0,35.49763,11.36526,41.19255,25.56706l61.73991-30.52965c-22.01731-42.60274-66.71351-58.22012-105.06132-58.22012-63.15011,0-107.87345,39.06111-107.87345,92.31847,0,52.52255,39.03388,75.25572,80.91249,87.3044l40.44689,11.36518c33.37157,9.94968,42.59993,19.18889,42.59993,40.44681,0,24.85923-24.14867,38.38034-50.39095,38.38034-28.3983,0-56.76929-15.64717-56.76929-44.75851,0-3.54164,0-4.95995,.68342-9.91989h-75.2232c-1.43999,7.086-1.43999,9.91989-1.43999,13.49405,0,64.59821,54.67302,110.03203,131.33886,110.03203h-.00265Z" fill="#fff"/></svg>