<?xml version="1.0" encoding="UTF-8"?><svg id="uuid-4d64625b-5fe7-40c4-b299-b62b24ffdf5b" xmlns="http://www.w3.org/2000/svg" viewBox="0 0 1299.28926 295.64582"><path d="M147.06312,213.5478c-36.69536,0-66.55572-29.86375-66.55572-66.56124,0-36.70007,29.86036-66.56323,66.55572-66.56323,36.70559,0,66.56599,29.86316,66.56599,66.56323,0,36.6975-29.8604,66.56124-66.56599,66.56124h0Zm118.51915-4.42103h0c-8.48235,.44865-31.00447,1.64536-31.00447,1.64536l10.28964-7.81218c18.16816-13.81143,29.74349-34.36547,35.74005-47.41234-7.55984,3.86019-27.63725,14.11151-27.63725,14.11151l6.21541-11.33113c10.98989-20.02198,13.1823-43.46322,13.34301-57.80465-5.3353,6.5799-19.49279,24.09905-19.49279,24.09905l1.06751-12.87453c.20581-2.44202,.3077-4.8861,.3077-7.30264,0-20.15413-6.55182-39.19076-11.62661-50.95758-2.18688,8.19449-8.00565,29.96777-8.00565,29.96777l-4.25962-12.19692c-7.50647-21.54689-23.48976-38.90474-34.04209-48.63166,1.32942,8.36949,4.86825,30.63721,4.86825,30.63721l-8.84542-9.40895c-15.65233-16.64799-37.29644-26.00275-50.87806-30.58384,4.62611,7.10924,9.87935,15.18866,9.87935,15.18866l7.04552,10.83264-11.90898-4.99329c-21.09088-8.85915-44.64701-8.58417-58.92204-7.25207,7.11189,4.6165,26.03908,16.88188,26.03908,16.88188l-12.91292,.2749c-22.85043,.49643-44.28314,10.32311-56.78301,17.351,8.38517,1.32106,30.65775,4.84281,30.65775,4.84281l-11.68201,5.5029c-20.66616,9.73922-36.24738,27.42865-44.81587,38.94103,8.19442-2.20268,29.98345-8.05969,29.98345-8.05969l-8.44127,9.78839c-14.92127,17.30248-21.95939,39.80888-25.10155,53.79339,6.59014-5.33666,24.11068-19.5427,24.11068-19.5427l-3.73231,12.36713c-3.01509,10.00734-4.0798,20.34554-4.0798,29.96026,0,11.39754,1.4976,21.78638,3.03276,29.41046,3.83979-7.56326,14.06859-27.67896,14.06859-27.67896l1.63506,12.81305c2.87211,22.67256,14.88299,42.97158,23.17385,54.65973,.4404-8.47411,1.60708-31.00451,1.60708-31.00451l6.70425,11.0563c11.84066,19.52558,31.06742,33.17906,43.40447,40.49676-3.04236-7.92427-11.14516-28.98232-11.14516-28.98232l10.62068,7.37446c18.7385,13.01135,41.86652,17.67103,56.12656,19.33686-6.00474-5.9945-21.96757-21.92925-21.96757-21.92925l12.6961,2.41393c22.45104,4.27806,45.4108-.89649,59.10808-5.17392-7.91679-3.03555-28.94952-11.08704-28.94952-11.08704l12.57916-2.95895c22.20897-5.2143,41.15122-19.29036,51.92989-28.76837h0Z" fill="#d92b1c"/><path d="M295.72235,138.91457s-17.19238,8.76948-24.62773,12.56627c7.88326-19.67066,9.41642-40.39763,9.41642-53.01168,0-3.93962-.1429-7.07633-.27487-9.14634l-.6599-10.16519s-12.15863,15.03332-17.41939,21.54962c-1.03872-27.80331-12.84589-52.8414-16.88733-60.56464l-4.72807-9.02663s-4.96808,18.55794-7.10913,26.60946c-12.26597-24.92383-33.28368-42.88537-40.10495-48.28637l-8.00091-6.32002s3.01777,18.96271,4.33688,27.19004c-21.36921-17.80708-47.85827-25.64458-56.29405-27.79116l-9.86235-2.51792,5.55892,8.53772s4.94485,7.61119,9.49233,14.60337c-26.7722-7.60633-54.1858-4.03334-62.75914-2.56916l-10.03252,1.72119s16.10775,10.44016,23.10005,14.96986c-27.53337,3.95391-51.08188,18.39936-58.32578,23.22995l-8.46932,5.64506s18.97022,2.97953,27.20027,4.29109C25.73072,85.23345,10.0887,108.00444,5.43377,115.35847L0,123.96252s18.54013-4.97761,26.59165-7.13994c-15.48205,23.09795-20.50825,50.26473-21.77129,58.88173l-1.46683,10.06271s14.96714-12.13603,21.46017-17.40157c-1.22197,7.04821-1.78959,14.07595-1.78959,20.74751,0,19.28554,4.02024,35.73523,5.77493,41.96367l2.75793,9.79318s8.70049-17.11165,12.47388-24.54696c6.82197,26.98074,23.64017,48.88473,29.19917,55.58155l6.50599,7.82716s.99021-19.16381,1.41552-27.48475c17.18483,21.85198,41.46448,35.02202,49.27113,38.88707l9.12374,4.51196s-6.89309-17.92064-9.88484-25.69722c24.56956,12.96552,52.13091,15.13054,60.82931,15.4971l10.18028,.41235s-13.64324-13.62819-19.54819-19.52558c27.73712,1.85934,53.83164-7.31295,61.93164-10.52082l9.47455-3.75907s-17.94383-6.87461-25.72251-9.85406c26.07402-9.5894,46.13159-28.61031,52.21433-34.8436l7.12492-7.28755s-19.18641,1.03394-27.50253,1.46683c19.91946-19.36284,30.49704-44.89736,33.52504-53.06579l3.55396-9.55384h0Zm-50.85491,64.04538h0l-10.28964,7.81218s22.52212-1.19671,31.00447-1.64536c-10.77867,9.47801-29.72092,23.55407-51.92989,28.76837l-12.57916,2.95895s21.03272,8.05148,28.94952,11.08704c-13.69728,4.27743-36.65704,9.45198-59.10808,5.17392l-12.6961-2.41393s15.96283,15.93474,21.96757,21.92925c-14.26004-1.66583-37.38806-6.32551-56.12656-19.33686l-10.62068-7.37446s8.1028,21.05805,11.14516,28.98232c-12.33705-7.3177-31.56381-20.97118-43.40447-40.49676l-6.70425-11.0563s-1.16668,22.5304-1.60708,31.00451c-8.29086-11.68816-20.30174-31.98717-23.17385-54.65973l-1.63506-12.81305s-10.2288,20.1157-14.06859,27.67896c-1.53515-7.62408-3.03276-18.01292-3.03276-29.41046,0-9.61472,1.06471-19.95292,4.0798-29.96026l3.73231-12.36713s-17.52055,14.20604-24.11068,19.5427c3.14216-13.98451,10.18028-36.49092,25.10155-53.79339l8.44127-9.78839s-21.78904,5.85702-29.98345,8.05969c8.56849-11.51238,24.1497-29.20182,44.81587-38.94103l11.68201-5.5029s-22.27258-3.52175-30.65775-4.84281c12.49987-7.02789,33.93257-16.85457,56.78301-17.351l12.91292-.2749s-18.92719-12.26538-26.03908-16.88188c14.27502-1.3321,37.83115-1.60708,58.92204,7.25207l11.90898,4.99329-7.04552-10.83264s-5.25325-8.07942-9.87935-15.18866c13.58162,4.58109,35.22573,13.93585,50.87806,30.58384l8.84542,9.40895s-3.53883-22.26772-4.86825-30.63721c10.55233,9.72692,26.53562,27.08476,34.04209,48.63166l4.25962,12.19692s5.81877-21.77328,8.00565-29.96777c5.07479,11.76682,11.62661,30.80345,11.62661,50.95758,0,2.41655-.10189,4.86063-.3077,7.30264l-1.06751,12.87453s14.15749-17.51915,19.49279-24.09905c-.16072,14.34143-2.35312,37.78267-13.34301,57.80465l-6.21541,11.33113s20.07741-10.25132,27.63725-14.11151c-5.99657,13.04687-17.5719,33.60091-35.74005,47.41234h0Z" fill="#2b2921"/><path d="M80.5074,146.98656c0,36.6975,29.86036,66.56124,66.55572,66.56124,36.70559,0,66.56599-29.86375,66.56599-66.56124,0-36.70007-29.8604-66.56323-66.56599-66.56323-36.69536,0-66.55572,29.86316-66.55572,66.56323h0Zm7.94683,0h0c0-32.32086,26.29624-58.61912,58.60889-58.61912,32.3181,0,58.61916,26.29827,58.61916,58.61912,0,32.32299-26.30106,58.60138-58.61916,58.60138-32.31265,0-58.60889-26.27839-58.60889-58.60138h0Z" fill="#2b2921"/><path d="M720.06613,231.35631l-1.0293-86.5594c0-41.355-42.40602-47.81998-102.18151-47.81998-21.2823,0-25.57479,7.96192-25.57479,13.95646,0,15.4964,16.6192,13.91266,32.85498,13.91266,14.56774,0,28.66637,.42251,28.66637,11.24499,0,11.07397-4.47846,14.08567-30.35752,14.08567-61.65133,0-86.97444,29.83584-83.63119,55.79759,3.26463,25.38201,28.98511,40.77244,71.93895,40.77244h89.03952c13.03259,0,21.7509-3.83979,20.2745-15.39042h0Zm-76.7723-12.49718h0c-20.23069,9.43151-41.21969,7.23164-46.88043-4.8942-5.65736-12.14553,6.15172-29.63397,26.38242-39.06545,20.23327-9.43148,41.2258-7.24662,46.89338,4.89898,5.643,12.14082-6.16689,29.61903-26.39537,39.06067h0Z" fill="#2b2921"/><path d="M496.1568,185.22193c-2.16432-2.88713-2.88713-6.36037-2.88713-10.39356,0-4.61937,3.60796-9.81372,11.51923-16.17961,5.80302-3.61341,9.97922-6.39386,12.94568-8.66486,3.67429-2.79349,5.7545-4.61451,10.79163-10.97009,5.75928-8.66493,8.62661-17.33252,8.62661-27.14903,0-38.12803-30.92514-59.50199-84.15361-59.50199h-60.42653c-26.91989,0-61.14522,5.50003-61.14522,58.92966v112.62366c0,21.68449,11.55475,22.41279,30.25497,22.41279,16.54407,0,33.71657-2.89262,33.71657-17.77837v-33.73913c0-8.28063,6.54158-14.00432,14.86521-14.00432,12.72688,0,13.74786,2.80578,32.21352,24.90263l26.02138,29.49663c5.80022,5.72435,14.38376,11.5404,26.61145,11.5404h25.91396c12.94778,0,21.02455-3.49374,19.42579-9.24341-3.34333-11.8509-44.29352-52.2814-44.29352-52.2814h0Zm-55.89952-41.83847h0c-23.80777,11.10217-48.49965,8.5227-55.16091-5.75166-6.65857-14.29571,7.23153-34.85925,31.04202-45.95663,23.80368-11.11233,48.49288-8.51997,55.14865,5.75726,6.66126,14.28533-7.23429,34.85166-31.02976,45.95103h0Z" fill="#2b2921"/><path d="M874.11864,219.53133h-26.87398c-13.45451,0-35.33793-.38699-18.13477-17.28463,3.10608-3.04512,56.17173-60.64327,56.17173-60.64327,10.18499-10.19059,19.2145-16.91545,24.20028-30.03138,3.34057-8.84339-3.78907-14.02265-16.28084-14.02265h-111.08638c-12.94513,0-21.32272,5.12875-21.32272,13.39635,0,9.75004,8.34689,14.05556,18.36366,14.05556l11.90162-.06574c12.66043,0,37.55828-1.16116,26.46163,9.94307-6.17712,6.15724-66.62198,67.68404-66.62198,67.68404-10.39923,9.48272-19.78006,22.1221-19.78006,30.56609,0,11.63139,5.39821,14.25938,17.89601,14.25938h116.10728c17.43706,0,34.01879-4.81763,35.35774-13.59189,1.11536-7.23705-11.80437-14.26494-26.35922-14.26494h0Z" fill="#2b2921"/><path d="M1235.71711,97.41733c-14.1322,0-30.68786-1.5537-64.63082,4.76433-33.65716,6.26392-43.36339,12.4663-43.36339,26.46104l.0759,95.79799c0,14.56498,3.96208,22.33611,33.44844,22.33611,30.72887,0,35.02261-7.22133,35.02261-21.21604l-.18391-16.68829c0-58.93717-6.0192-78.40669,33.29133-83.9369,31.38049-4.41073,69.91197,16.59947,69.91197-9.32752,0-10.62819-25.80456-18.19072-63.57214-18.19072h0Z" fill="#2b2921"/><path d="M1110.21392,147.24379l-.24965-.94994-.31039-1.16594c-10.39916-33.29597-60.0984-50.81998-97.18822-50.81998h-7.16056c-37.08438,0-86.71721,17.52401-97.03494,50.81998l-.36722,1.15291-.24958,.98064c-2.19988,7.85797-3.43223,16.05239-3.43223,24.55182,0,8.576,1.1359,16.74443,3.35632,24.65371l.34595,1.37996c9.62024,33.81504,59.59431,50.6463,97.04054,50.6463h7.39975c38.37827,0,90.35403-17.68675,98.15038-53.09097,2.03239-7.57283,3.12714-15.52239,3.12714-23.67043,0-8.46925-1.24243-16.66094-3.42729-24.48807h0Zm-84.34992,59.22495h0c-31.72173,14.79413-64.65129,11.35167-73.52744-7.69519-8.87615-19.03111,9.64078-46.46535,41.37282-61.25948,31.74234-14.79678,64.66144-11.3619,73.53774,7.68768,8.88167,19.03324-9.65043,46.47293-41.38312,61.26699h0Z" fill="#2b2921"/><path d="M290.54839,223.819c7.395,0,13.41141,6.01508,13.41141,13.40938,0,7.40461-6.01641,13.41413-13.41141,13.41413-7.39979,0-13.41134-6.00952-13.41134-13.41413,0-7.3943,6.01155-13.40938,13.41134-13.40938h0Zm0,23.54384h0c5.60954,0,10.12967-4.52767,10.12967-10.13445,0-5.60748-4.52013-10.12963-10.12967-10.12963-5.61219,0-10.12897,4.52215-10.12897,10.12963,0,5.60678,4.51678,10.13445,10.12897,10.13445h0Zm-2.11304-4.37447h0c0,1.023-.36649,1.7513-1.63984,1.7513-1.27877,0-1.63984-.5854-1.63984-1.7513v-11.2553c0-.84521,.28723-1.53791,1.6754-1.53791h4.1119c2.95623,0,5.44201,.88147,5.44201,4.26779,0,2.58698-1.31639,3.90127-3.64897,4.0025l2.58426,4.23705c.15037,.28587,.22149,.54023,.22149,.76452,0,.79393-.51148,1.27265-1.71641,1.27265-1.16322,0-1.52974-.87602-2.00088-1.7513l-2.29975-4.2986h-1.08937v4.2986h0Zm2.73194-6.91632h0c1.19944,0,1.93252-.29544,1.93252-1.6091s-.73308-1.63984-1.93252-1.63984h-2.73194v3.24895h2.73194Z" fill="#2b2921"/><path d="M1244.1098,223.819c7.40998,0,13.4194,6.01508,13.4194,13.40938,0,7.40461-6.00941,13.41413-13.4194,13.41413-7.39982,0-13.40394-6.00952-13.40394-13.41413,0-7.3943,6.00411-13.40938,13.40394-13.40938h0Zm0,23.54384h0c5.62246,0,10.13927-4.52767,10.13927-10.13445,0-5.60748-4.51681-10.12963-10.13927-10.12963-5.61156,0-10.13456,4.52215-10.13456,10.12963,0,5.60678,4.523,10.13445,10.13456,10.13445h0Zm-2.11308-4.37447h0c0,1.023-.36178,1.7513-1.62953,1.7513-1.2788,0-1.65574-.5854-1.65574-1.7513v-11.2553c0-.84521,.29552-1.53791,1.69123-1.53791h4.10984c2.95825,0,5.43855,.88147,5.43855,4.26779,0,2.58698-1.319,3.90127-3.65103,4.0025l2.59176,4.23705c.14297,.28587,.21409,.54023,.21409,.76452,0,.79393-.50946,1.27265-1.71641,1.27265-1.15571,0-1.52779-.87602-2.00088-1.7513l-2.29227-4.2986h-1.09961v4.2986h0Zm2.73474-6.91632h0c1.19664,0,1.92976-.29544,1.92976-1.6091s-.73312-1.63984-1.92976-1.63984h-2.73474v3.24895h2.73474Z" fill="#2b2921"/></svg>