<?xml version="1.0" encoding="UTF-8"?><svg id="uuid-ecead2ae-1503-4891-a3f6-d5563a87c41d" xmlns="http://www.w3.org/2000/svg" viewBox="0 0 507.89679 217.66279"><path d="M503.14976,15.29831c-7.3294-13.53299-25.72291-18.63502-39.43545-12.19531-16.92918,6.82036-23.57545,27.95836-17.40328,44.37947,4.87489,15.07536,19.9198,22.93534,33.77239,28.27437,5.37398,3.92415,.28003,11.98523-1.35032,17.03519-4.82192,11.66024-9.67078,23.34741-15.87789,34.34151-3.19973-.35911-3.1297-5.92708-5.234-8.0135-13.46655-28.73951-23.22449-59.14869-30.07178-90.11458-2.04243-10.00296-6.2422-21.24753-16.04405-25.92042-12.90545-5.57605-31.04489-2.72653-38.34825,10.42841-4.24376-7.13179-11.69525-12.90994-20.26081-12.82635-15.571-1.38975-28.73051,9.85473-36.98102,21.91367-1.6923-5.86962-4.83898-11.62972-10.37194-14.62827-14.17669-7.61399-30.93088-6.18025-46.40484-5.35161-.23701,9.47686,.19302,18.97168-.23701,28.44944-4.56785-7.89499-9.37631-16.1446-17.66984-20.74298-32.87282-20.83545-79.32255-7.3689-100.31601,24.20568-.98126-10.91967-4.44037-23.66253-14.76383-29.33464C113.85602-3.19217,95.78205-.14963,85.76114,10.45394c-9.63128,10.48147-11.23559,26.39444-6.00608,39.35196,5.54104,15.07536,21.19103,21.19097,34.53901,27.50768-2.02537,15.55746-11.33166,29.29604-17.28919,43.63881-1.70493,1.58726-1.32787,6.67223-4.30846,6.17217-16.04046-32.22824-26.60452-66.89465-34.94205-101.82339C54.94434,9.06419,38.43967-3.95527,21.72947,1.10815,6.73671,3.34809-2.14403,19.09408,.44693,33.49431c2.50754,20.13878,9.59992,39.3744,16.11408,58.4996,6.93444,18.42045,13.21697,37.29598,23.05743,54.4363,10.82352,15.75497,32.40412,18.73557,49.82894,15.24683,13.96212-25.39074,25.71483-52.13082,38.25226-78.29633,.92913,23.77206,10.3629,47.99659,29.36606,63.07554,18.45001,15.30788,44.25731,21.34898,67.41978,14.54567,14.30424-3.39357,25.59184-13.30944,35.36317-23.75949,6.57527,24.17964,36.60389,29.68567,57.45191,23.60148,.24599-38.19922-.06105-76.39845,.12299-114.59776-.14903-5.479,2.16549-12.16829,8.04851-13.58497-.03501,13.05089,5.00597,29.11199,19.22665,32.71115,11.61625,3.97174,22.55827-3.7042,28.89653-12.82195,7.54037,28.66042,15.571,57.44293,27.91534,84.48107,7.19825,16.25503,25.25869,25.37278,42.62613,23.17235-3.07673,7.83753-9.0478,13.98358-14.16779,20.50687-2.41051,2.20941-4.93594,5.97915-8.5746,5.74214-3.55876-6.61028-5.72508-14.37779-11.73924-19.35781-12.96649-13.72143-38.96143-13.5724-49.28033,3.20872-8.02255,11.38821-4.99796,27.48523,4.55881,36.99801,10.15199,10.468,26.83622,12.83542,40.22459,7.86447,15.69302-6.03212,27.51127-18.77148,37.36609-31.97498,18.41057-24.76768,32.16711-52.59497,45.11654-80.50126,8.34567-18.21845,16.49114-36.85257,19.69977-56.78127,.77126-10.266,1.64831-21.54119-4.19079-30.61037ZM183.89729,29.25953c3.021-5.33006,7.1283-11.4762,13.6075-12.70794,6.96131-2.23545,14.12821,3.13412,15.91208,9.76684,7.87344,24.1186-6.50524,54.55471-32.57469,59.20076-4.65943-18.34055-4.51033-38.70745,3.05511-56.25967Zm75.14516,100.73251c-29.09045,10.08196-64.25162-5.26093-74.79413-34.48246,25.76241,.39502,59.40732-1.19224,74.22405-26.16551,1.35922,17.56038,.34205,40.86021,.57008,60.64797Z" fill="#ec038d"/></svg>