<?xml version="1.0" encoding="UTF-8"?><svg id="uuid-c585fb81-02ef-461f-8c4b-b4e47f42ca2c" xmlns="http://www.w3.org/2000/svg" viewBox="0 0 569.596 569.44859"><path d="M283.26085,411.31815c-70.67958,0-128.19414-57.52108-128.19414-128.20477,0-70.68865,57.51456-128.2086,128.19414-128.2086,70.69929,0,128.21392,57.51995,128.21392,128.2086,0,70.68369-57.51463,128.20477-128.21392,128.20477h0Zm228.2818-8.51543h0c-16.33801,.86415-59.71826,3.16916-59.71826,3.16916l19.81907-15.04717c34.994-26.60244,57.28945-66.19193,68.83954-91.32174-14.56114,7.43517-53.2326,27.18043-53.2326,27.18043l11.9716-21.82509c21.16783-38.56468,25.39066-83.71527,25.70021-111.33855-10.27641,12.67367-37.5454,46.4176-37.5454,46.4176l2.05615-24.79785c.39641-4.70361,.59267-9.4112,.59267-14.06575,0-38.81922-12.61957-75.486-22.39421-98.15028-4.2122,15.78356-15.41983,57.72145-15.41983,57.72145l-8.20453-23.49269c-14.45833-41.50185-45.24404-74.93509-65.56906-93.67029,2.56061,16.12062,9.37681,59.01087,9.37681,59.01087l-17.03731-18.12274c-30.14823-32.06598-71.83733-50.08435-97.99713-58.90806,8.91042,13.69323,19.0288,29.25515,19.0288,29.25515l13.5705,20.86494-22.9381-9.61767c-40.62352-17.06376-85.9954-16.53412-113.49077-13.96833,13.69834,8.89192,50.15433,32.51649,50.15433,32.51649l-24.8718,.52949c-44.01262,.95618-85.29453,19.88351-109.37075,33.42006,16.15083,2.54452,59.05043,9.32782,59.05043,9.32782l-22.50092,10.59923c-39.80546,18.75887-69.8167,52.8308-86.32062,75.005,15.78341-4.24261,57.75166-15.52391,57.75166-15.52391l-16.25888,18.8536c-28.74012,33.32661-42.29637,76.67658-48.34854,103.6124,12.69338-10.27904,46.44001-37.64154,46.44001-37.64154l-7.18886,23.82054c-5.80741,19.27532-7.85817,39.1879-7.85817,57.70699,0,21.95299,2.88456,41.96314,5.84144,56.648,7.39589-14.56773,27.09776-53.31293,27.09776-53.31293l3.14931,24.67944c5.53203,43.67002,28.66638,82.76831,44.63556,105.28107,.84827-16.32213,3.09542-59.71833,3.09542-59.71833l12.91317,21.29573c22.80651,37.60857,59.8395,63.90677,83.60211,78.00152-5.85995-15.26307-21.46689-55.82334-21.46689-55.82334l20.45668,14.20408c36.09255,25.06139,80.63984,34.03648,108.10636,37.24506-11.56583-11.54612-42.31211-42.23831-42.31211-42.23831l24.45419,4.64952c43.24334,8.24005,87.46653-1.72674,113.84911-9.96558-15.24867-5.84683-55.76017-21.35494-55.76017-21.35494l24.22893-5.69929c42.77709-10.04336,79.26208-37.15551,100.02307-55.41126h0Z" fill="#d92b1c"/><path d="M569.596,267.56578s-33.11454,16.89104-47.43589,24.20412c15.18408-37.88799,18.13714-77.81058,18.13714-102.10673,0-7.58818-.27524-13.62985-.52942-17.61693l-1.27105-19.57935s-23.41895,28.95595-33.55179,41.5071c-2.0007-53.55244-24.74269-101.77874-32.52698-116.65461l-9.10682-17.38636s-9.5691,35.74478-13.69302,51.25295c-23.6257-48.00623-64.10827-82.60226-77.24684-93.00523l-15.41068-12.1731s5.81259,36.52441,8.35335,52.37121c-41.15961-34.29853-92.18064-49.39448-108.42896-53.52904L237.88898,0l10.70714,16.44464s9.52436,14.66005,18.28334,28.12782c-51.56641-14.65069-104.36821-7.76869-120.88149-4.94851l-19.32382,3.31522s31.02542,20.10898,44.4934,28.83371c-53.03251,7.61569-98.38971,35.43933-112.3423,44.74362l-16.31291,10.87305s36.53888,5.73892,52.39092,8.26515C49.56039,164.16963,19.43201,208.02925,10.46607,222.19398L0,238.76638s35.71046-9.58746,51.21864-13.75237c-29.82024,44.48936-39.50129,96.81577-41.93407,113.41313l-2.82529,19.38196s28.82847-23.37542,41.33481-33.51747c-2.35365,13.57568-3.44695,27.11194-3.44695,39.96215,0,37.14622,7.74345,68.83025,11.12319,80.82695l5.31209,18.86281s16.75817-32.95905,24.02616-47.28033c13.13992,51.96807,45.53374,94.15773,56.24103,107.05659l12.5313,15.07603s1.90725-36.91175,2.72645-52.93885c33.10001,42.08948,79.86545,67.45653,94.90199,74.90106l17.5734,8.69056s-13.2769-34.51726-19.03936-49.49587c47.32387,24.97312,100.41027,29.1432,117.1644,29.84924l19.60842,.79424s-26.27849-26.24949-37.6521-37.60857c53.42495,3.58131,103.68606-14.0856,119.28762-20.26433l18.24909-7.2404s-34.56193-13.24131-49.54458-18.98009c50.22162-18.4703,88.85486-55.10681,100.57093-67.11287l13.72344-14.03668s-36.95528,1.99149-52.9731,2.82529c38.36722-37.29511,58.74088-86.4776,64.57317-102.21096l6.84534-18.40181h0Zm-97.95253,123.35893h0l-19.81907,15.04717s43.38025-2.30501,59.71826-3.16916c-20.76099,18.25575-57.24599,45.3679-100.02307,55.41126l-24.22893,5.69929s40.5115,15.5081,55.76017,21.35494c-26.38257,8.23884-70.60577,18.20563-113.84911,9.96558l-24.45419-4.64952s30.74628,30.69219,42.31211,42.23831c-27.46652-3.20858-72.01381-12.18367-108.10636-37.24506l-20.45668-14.20408s15.60694,40.56028,21.46689,55.82334c-23.76261-14.09475-60.79561-40.39295-83.60211-78.00152l-12.91317-21.29573s-2.24716,43.3962-3.09542,59.71833c-15.96918-22.51276-39.10353-61.61105-44.63556-105.28107l-3.14931-24.67944s-19.70186,38.74519-27.09776,53.31293c-2.95688-14.68486-5.84144-34.69501-5.84144-56.648,0-18.51908,2.05076-38.43167,7.85817-57.70699l7.18886-23.82054s-33.74663,27.3625-46.44001,37.64154c6.05216-26.93582,19.60842-70.28579,48.34854-103.6124l16.25888-18.8536s-41.96824,11.2813-57.75166,15.52391c16.50392-22.1742,46.51516-56.24613,86.32062-75.005l22.50092-10.59923s-42.89961-6.7833-59.05043-9.32782c24.07621-13.53654,65.35813-32.46388,109.37075-33.42006l24.8718-.52949s-36.45599-23.62457-50.15433-32.51649c27.49537-2.56579,72.86725-3.09542,113.49077,13.96833l22.9381,9.61767-13.5705-20.86494s-10.11837-15.56192-19.0288-29.25515c26.1598,8.82371,67.8489,26.84209,97.99713,58.90806l17.03731,18.12274s-6.8162-42.89025-9.37681-59.01087c20.32502,18.73519,51.11072,52.16844,65.56906,93.67029l8.20453,23.49269s11.20764-41.9379,15.41983-57.72145c9.77464,22.66428,22.39421,59.33106,22.39421,98.15028,0,4.65455-.19626,9.36214-.59267,14.06575l-2.05615,24.79785s27.26898-33.74393,37.5454-46.4176c-.30956,27.62328-4.53239,72.77387-25.70021,111.33855l-11.9716,21.82509s38.67146-19.74526,53.2326-27.18043c-11.55009,25.12981-33.84554,64.7193-68.83954,91.32174h0Z" fill="#2b2921"/><path d="M155.06671,283.11338c0,70.68369,57.51456,128.20477,128.19414,128.20477,70.69929,0,128.21392-57.52108,128.21392-128.20477,0-70.68865-57.51463-128.2086-128.21392-128.2086-70.67958,0-128.19414,57.51995-128.19414,128.2086h0Zm15.30653,0h0c0-62.25377,50.64965-112.90732,112.88761-112.90732,62.24845,0,112.90739,50.65355,112.90739,112.90732,0,62.25788-50.65894,112.87315-112.90739,112.87315-62.23796,0-112.88761-50.61526-112.88761-112.87315h0Z" fill="#2b2921"/></svg>