<?xml version="1.0" encoding="UTF-8"?><svg id="uuid-3de1538e-a7f1-4bbc-9db1-b6d33359590e" xmlns="http://www.w3.org/2000/svg" viewBox="0 0 1049.27385 128.8929"><path d="M18.56056,36.10519c2.33859,1.51801,6.75499,4.38453,12.01225,3.86066,5.2958-.52735,5.47255-3.89977,11.46636-5.23959,5.18279-1.15843,5.39868,1.28476,13.65051,1.10309,7.65148-.16864,9.48156-2.31367,13.92345-.5514,3.5002,1.3882,4.04899,3.38836,6.82511,3.30926,3.59553-.10286,4.47696-3.5089,8.19042-3.86095,2.6944-.25556,4.14374,1.35575,7.64424,3.30926,4.50304,2.51302,5.19728,1.57219,13.65051,4.41234,6.35571,2.13576,6.12217,2.72077,16.6535,6.89465,6.83148,2.70744,10.24737,4.06116,12.01225,4.41263,3.2119,.6389,14.0889,2.80393,22.93271-2.75786,3.25102-2.0442,3.66855-3.52367,7.09835-4.68819,5.21119-1.76981,10.38529-.43897,12.01254,0,5.13643,1.3853,5.42763,3.26956,8.73602,3.30926,4.0319,.04839,5.84807-2.72309,10.37457-5.51572,6.85092-4.22661,13.75916-4.70644,17.47234-4.96403,8.8864-.61688,9.9298,2.49563,20.40752,1.7927,6.65387-.44651,6.93437-1.74865,10.03295-.82753,4.00324,1.1903,5.04864,3.81372,14.12831,11.37595,3.91687,3.26232,4.88409,3.74186,6.14274,3.92991,2.91143,.4355,4.67978-1.09208,11.87581-5.37751,9.22654-5.49515,11.07487-5.8159,12.69488-5.79156,1.20189,.01825,2.12304,.22398,9.21411,3.30955,9.93038,4.32049,8.96609,4.2834,10.64723,4.75715,8.9177,2.51244,17.83366-1.57248,20.27105-2.6889,6.4351-2.94823,6.93-5.57222,11.67092-5.79156,4.42451-.20428,9.74233,1.81501,10.95465,2.27542,2.89752,1.10019,3.1922,1.64608,5.4259,2.17169,3.47934,.81855,4.78902-.02955,9.52125-.20688,3.45069-.12952,6.49798,.29294,12.59262,1.13757,3.8792,.53749,6.50406,1.06078,7.50776,1.24101,7.28813,1.30794,12.13974-.57313,32.35139-4.1365,.8568-.15125,16.2076-2.79408,21.9774-.68961,.32771,.11967,2.3212,.87331,5.11876,1.51685,.83191,.19124,2.98445,.68642,4.98229,.82724,4.02353,.28367,4.99359-1.0405,9.14602-1.51656,4.6963-.53894,8.57086,.5682,10.44237,1.10309,3.48543,.99559,3.73461,1.7756,7.88328,2.89549,3.39908,.91764,6.0874,1.16538,7.06415,1.24101,4.88319,.37871,8.59318-.31119,9.62353-.51692,2.79843-.55893,2.63472-.90287,5.01648-1.34445,3.41241-.63282,6.01351-.34683,9.82839,.10344,4.55027,.53691,7.66336,.90432,11.46636,2.48202,4.31209,1.78864,4.40278,3.01458,8.08785,4.1365,4.14726,1.26303,7.7132,.8313,9.31643,.62065,8.03482-1.05615,8.36279-5.26885,15.66399-5.79156,5.87584-.42043,9.72549,.7238,9.72549,.7238,2.43681,.72467,4.01654,1.66781,6.04046,1.03441,2.01928-.63166,3.1328-2.40987,3.99278-3.82647,3.27796-5.39779,1.02138-8.43091,3.68565-11.16907,2.3693-2.4345,6.39541-2.34091,9.21411-2.27513,4.08,.09475,4.2185,1.3911,7.67843,1.24101,4.4419-.19326,5.43053-2.38292,9.3164-2.37857,2.58778,.00261,4.17735,.9756,7.16644,2.48202,5.95991,3.00299,12.37067,4.99098,18.53051,7.54949,8.01889,3.3307,9.48185,3.86558,11.97835,4.34338,2.91433,.55806,6.68748,1.28041,11.36382,.41377,3.9177-.72612,4.18601-1.77386,9.21411-2.58546,2.84591-.45926,4.14139-.34683,6.75702-1.24101,2.82533-.96603,3.05221-1.69215,5.11872-2.27513,2.81002-.79276,4.79887-.13039,8.39532,.55169,5.03121,.95357,7.92873,1.50294,11.12499,1.24101,4.38254-.35958,7.88676-2.12678,14.05993-5.24017,4.07768-2.05608,4.62705-2.76974,6.96158-3.17134,3.07456-.52909,5.5644,.11619,10.23781,1.37893,6.77614,1.83094,6.21141,2.71208,9.2825,2.89578,3.35421,.20022,3.74736-.86781,11.19341-1.93062,3.83139-.54676,5.77447-.80928,7.09806-.27584,3.39416,1.3685,3.38575,4.50622,7.09839,6.61881,1.98012,1.12685,3.714,1.21957,6.68859,1.37893,6.61069,.35408,12.10004-1.78429,15.56146-3.17163,4.95269-1.98451,4.81882-2.79118,7.50772-3.10237,2.06477-.23905,3.73288,.05273,11.32988,2.27513,7.1024,2.07781,6.33688,2.02537,8.32689,2.48202,5.41633,1.24333,9.22715,2.1178,13.37727,.82724,2.93026-.91098,2.24152-1.72316,8.32689-4.6879,3.64972-1.7785,5.52648-2.66949,8.05366-2.75815,1.74576-.06114,2.35308,.29352,7.91747,2.06854,5.24364,1.67303,7.86561,2.50954,10.92017,3.17163,4.59431,.99559,8.02497,1.2016,8.73631,1.24101,3.88239,.215,6.76513-.09736,10.51075-.55169,13.10635-1.59016,19.65943-2.38524,24.26383-3.61958,3.87978-1.04021,7.79085-1.95988,11.67097-2.99922,4.58412-1.22797,6.4084-1.77676,9.00921-1.24101,2.42986,.50069,2.59763,1.34213,7.16644,3.10266,3.23194,1.24506,4.84784,1.86774,6.96187,2.06825,3.51353,.33293,4.7867-.65774,9.24831-.06896,1.43403,.18921,2.92418,.50533,3.13946,.5514,2.50954,.53691,4.27964,1.14742,4.77772,1.31026,2.95576,.96574,7.02127,.89678,15.152,.75828,4.6088-.07852,6.20185-.25179,8.94088,.44825,2.12591,.543,2.78022,1.05962,4.91419,1.65448,3.10933,.86694,4.04813,.17791,9.11183,.72409,2.55358,.27526,3.85834,.42536,5.22104,1.03412,2.64891,1.18306,2.80103,2.51852,4.60706,3.61958,4.70934,2.87057,12.24405-.98458,16.58541-3.20582,2.61067-1.33576,3.12063-2.75293,5.52847-3.41299,.58182-.15936,4.4419-1.16625,8.08785,.72409,1.78487,.92547,1.55452,1.5267,3.99278,2.99893,1.33112,.80377,3.16033,1.90831,5.42595,2.17198,1.59591,.18544,3.04756-.09562,4.28336-.53169,2.22414-8.73226,3.27594-11.3464,3.9528-16.41938,.2744-2.0584,.39319-3.88876,.441-5.53426-7.87198,3.19452-14.76924,5.26972-20.14356,6.62779-4.11013,1.03847-9.16051,2.29484-15.97084,3.0337-7.35275,.79769-11.57154,.4297-20.27105,.20688-22.98806-.58907-20.688,1.2836-29.28002,0-11.48403-1.71591-11.11368-4.39206-27.23259-7.23945-7.68485-1.3572-12.16586-2.11693-18.42823-1.65448-1.99673,.14748-8.5486,.74177-16.58516,2.06825-3.7462,.61833-7.2693,1.30562-11.67121,.20688-3.41531-.85274-5.67421-2.35974-6.55216-2.89578-11.52281-7.0375-37.06653-.69917-42.38464,.62065-12.47209,3.09484-16.07081,6.10073-23.34242,4.1365-4.23125-1.14307-6.26121-3.03834-11.67088-3.30926-1.51197-.07563-3.55124-.03767-14.33321,2.6889-9.67888,2.44754-10.83122,3.12411-14.12802,2.89578-4.36598-.30279-4.61517-1.64666-10.44266-3.10266-5.06081-1.26448-9.51691-1.20479-18.22337-1.03412-10.36037,.20312-9.95356,1.02167-16.10732,.75828-8.70821-.37262-8.66706-1.97524-16.92673-2.48202-8.02729-.49258-7.79462,1.03818-21.29446,1.37893-8.29067,.2092-9.61977-.3364-14.46964,.55169-6.68226,1.22362-8.05424,2.97315-13.65051,4.41234-8.14928,2.09549-14.91933,.87447-21.29475-.27584-11.05317-1.99378-12.03746-4.81452-23.47861-8.27329-13.14547-3.97395-24.05869-3.94179-31.66903-3.86095-11.66165,.12401-19.23026,.20428-27.84691,4.4813-6.88364,3.41705-6.36556,5.50587-12.89976,7.85981-4.88377,1.75937-7.08125,1.27983-24.16123,2.06854-6.18016,.28541-11.52231,.6079-15.15204,.82724-13.03478,.78755-13.6789,1.046-17.40425,1.03412-8.28575-.02608-11.04593-1.32417-20.68047-2.6889-10.22998-1.44905-9.20948-.28222-29.55297-1.58581-16.66914-1.06803-25.00357-1.60204-29.21193-2.20588-5.74984-.82521-10.91554-1.81588-18.01878-.55169-4.69344,.83536-5.01535,1.72663-12.83141,4.41234-12.30664,4.22893-19.61273,6.73963-27.98338,5.10195-5.05472-.98892-5.05241-2.42551-11.87578-3.72302-2.22443-.42304-6.633-1.10859-15.01553-.68932-7.93631,.39696-8.11827,1.21812-22.52329,2.89578-7.22844,.84144-12.09715,1.20682-17.88205-.55169-1.19204-.36277-1.45774-.52184-5.59656-2.20646-8.39904-3.41849-15.02103-5.90399-15.83466-6.20504-8.93537-3.3052-17.86379-2.28527-33.64832-.48244-7.28524,.83217-14.07673,1.60783-22.93271,4.13679-9.45313,2.69933-11.37595,4.57432-17.81366,4.55027-5.1741-.01912-7.46749-1.24333-16.17599-1.24101-.78639,.00029-4.3147,.01101-9.00926,.41377-8.62505,.73945-10.28823,1.866-14.74229,2.06825-5.39257,.24484-9.46475-1.28476-17.6091-4.34367-11.48548-4.31354-10.82977-6.2798-19.0425-8.68706-3.3617-.98516-8.86149-1.48411-19.86134-2.48202-10.60608-.96198-12.90237-.66585-15.35657,.20688-4.57026,1.62522-5.03792,3.59611-10.64752,5.17091-2.14967,.60355-6.27369,1.71157-11.05665,.62065-3.08615-.70439-4.2631-1.82602-7.781-3.72331,0,0-6.80106-3.66826-14.94715-5.58439-8.09973-1.9057-8.42541,.34625-16.9948-1.44789-7.18993-1.50526-8.09975-3.32925-13.92348-4.13679-1.13438-.15734-2.22616-.22659-3.29419-.25962,.08345,.53604,.15791,1.06194,.28193,1.64405,.45201,2.12359,.95328,4.26341,1.91555,6.32094,2.95228,.17124,5.09993,1.0095,6.69327,2.01609,3.75779,2.37307,3.86964,5.31144,9.2825,8.82498Z" fill="#e7f2f8"/><path d="M9.76948,32.43837c3.34374,3.67261,3.50252,8.80788,3.72331,15.92854,.10518,3.40517-.17615,2.90679-.21905,9.29148-.03564,5.26277,.15096,6.28095,.21905,12.05687,.09098,7.76043-.23093,7.19222-.10982,13.82697,.06664,3.64856,.24542,6.85698,.60239,13.27383,.01043,.18573,.22514,3.9867,.65716,8.79368,.86781,9.66555,1.19233,7.58252,1.14974,7.96441-.01594,.13966-.10518,.8284,.28743,1.28563,.03535,.04143,.31235,.35668,.57489,.29033,.19703-.04955,.30567-.2941,.36941-.4975,1.38704-4.41003,1.23203-7.01026,1.23203-7.01026-.14372-2.41045-.36856-6.18099,.32858-9.99673,.55719-3.05109,1.14017-3.04616,1.56031-5.97324,.32829-2.28759,.1582-3.58655-.16429-7.71523-.81623-10.44962-.48244-11.78914,.16429-13.02522,1.10224-2.10592,1.81559-1.43311,4.07884-4.75628,1.39168-2.04304,2.95721-4.34164,3.39473-7.52196,.22632-1.6455,.15098-3.56743,0-7.41099-.06606-1.68085-.16603-3.11281,.76668-3.98206,.45462-.4242,1.2158-.57748,2.73729-.8849,1.53713-.31032,2.30556-.46563,3.17568-.22137,1.13641,.31931,1.866,1.05354,2.18997,1.43804,.77506,.91851,.96862,1.8915,1.10886,2.64109,.12025,.64267,.05708,.77335,.04086,3.06934-.0171,2.49563,.05882,2.14677,0,2.90361-.06519,.84463-.07099,1.48962-.082,2.7793-.00174,.17733,.00029,.74669,.32858,1.28592,.17037,.2799,.32916,.38798,.36972,.41464,.39696,.26049,.91359,.18341,1.14974,.08316,.68439-.29178,.79508-1.5467,.86201-3.2771,.10402-2.6831-.03127-3.03979,.04143-4.52129,.13531-2.77322,.65861-2.52345,.78001-5.39229,.03682-.87215,.03796-2.0639,.4106-3.60915,.07415-.30714,.27205-1.08164,.78028-1.94945,.30743-.52532,.60066-1.01268,1.19059-1.36879,.46969-.28309,.93967-.3703,1.19117-.41492,.21007-.03709,.5711-.08345,1.10859-.04114,1.25752,.09823,2.34151,.19384,3.12094,.82956,.22714,.18486,.7012,.6389,1.16536,2.80683,.38771,1.80921,.29149,2.58517,.49287,4.75628,.22746,2.45159,.42333,2.25108,.6021,4.47986,.18892,2.35626-.05242,2.30382,.16429,4.47986,.277,2.78278,.62357,2.38843,.71192,4.36917,0,0,.03013,.67686,.65687,2.76539,.06085,.20254,.19095,.61543,.54763,.77451,.01393,.00637,.34017,.14604,.60213,0,.39491-.21992,.37694-.93793,.38332-1.32735,.02347-1.43514,.4213-1.21116,.65689-3.20784,.19005-1.6116-.0884-1.59451,.05474-3.70564,.07012-1.0347,.18921-1.80631,.32858-2.71005,.24426-1.58349,.36625-2.37539,.65716-3.26319,.38856-1.1874,.5627-1.09352,1.3685-2.98647,.81768-1.92048,.7041-2.17198,1.25955-2.98676,.75191-1.10309,1.67477-1.69128,2.24471-2.04623,.49258-.30714,1.81877-1.06542,4.68123-1.41022,2.27052-.27382,4.37728-.61283,6.73442,.24861,1.37371,.50243,1.13148,.77625,2.95665,1.49338,1.90712,.7493,3.64187,1.4308,5.17379,.74669,.54908-.24542,.30192-.32191,2.46408-1.99118,1.28213-.99008,1.76804-1.27085,2.29945-1.16133,.63659,.13097,1.04429,.7719,1.31403,1.32735,1.31258,2.70136,1.00167,6.66893,.8623,9.16717-.21992,3.94497-.32974,5.91761-.09591,8.39296,.20543,2.17082,.50649,3.31998,.71192,6.52608,0,0,.01623,.25295,.21905,3.81632-.01912,.14806-.11213,.98429,.43811,1.54843,.10228,.10547,.34164,.35089,.71163,.3874,.41377,.04086,.73018-.20601,.82116-.27671,.43926-.34278,.54357-.87476,.71192-2.21226,.16287-1.292,.244-1.93815,.27382-2.59966,.01014-.22861,.02523-.94517,.05476-2.37799,.01217-.58762,.01973-.99385,.10924-1.54843,.10752-.66469,.26744-1.13959,.32858-1.32764,.22282-.68758,.4042-1.80429,.76668-4.0374,.38914-2.40002,.58414-3.59959,.6021-4.20314,.03941-1.32417-.10025-1.70983,0-3.48456,.08287-1.46267,.22919-2.09896,.49287-2.71005,.17008-.39406,.53375-1.23521,1.25926-1.82486,1.5409-1.25318,4.02642-.81333,5.58468-.05534,1.57335,.76495,1.33489,1.43282,3.50397,2.87579,1.92511,1.2807,2.12881,.76552,3.61379,1.93583,.60993,.4807,2.36959,1.86745,3.12092,4.09275,.17327,.51344,.17994,.73742,.43782,1.32735,.49635,1.13612,1.1848,1.9396,1.80663,2.65471,.90692,1.04311,1.00165,.91359,1.25924,1.3827,.5004,.9104,.3373,1.75242,.21905,3.04182,0,0-.26599,2.89839,.05505,6.24966,.11213,1.17031,.28106,2.12678,.38305,2.65471,.25006,1.29316,.53083,2.26007,.71192,2.87608,.55748,1.90048,.60037,1.44818,.87592,2.59966,.17472,.7296,.31612,1.57451,.93068,2.15662,.20833,.1979,.40623,.30308,.60239,.27671,.25006-.03361,.43782-.27295,.60239-.60819,.36856-.75365,.39522-1.53713,.38305-2.655-.0142-1.32127-.02115-1.9819-.10953-2.59937-.16197-1.13264-.31844-1.14133-.43811-2.21255-.13937-1.24941-.02579-2.13257,0-2.32265,.10605-.77625,.27584-1.16191,.49287-1.88049,.19037-.63021,.80406-2.66195,.76668-4.92231-.02028-1.20914-.21007-1.47687-.05505-2.48897,.10199-.66266,.2402-1.49715,.87621-2.2676,.67831-.82145,1.54527-1.10106,1.91642-1.21667,0,0,.89678-.27961,1.86137-.16574,1.98944,.23412,2.67847,2.03145,4.48973,3.20784,2.89025,1.87701,6.81089,.98516,9.19815,.44216,1.48092-.33669,3.3626-.98052,4.0516-1.21638,2.46929-.8455,2.8332-1.16509,3.83255-1.32764,.39609-.06432,4.14751-.59225,5.80373,1.54872,.47925,.61978,.62007,1.2526,.76668,2.10157,.65687,3.80937,.57226,7.00447,.54737,8.07481-.05131,2.20269-.10608,4.55925,0,7.41128,.03967,1.0689,.17267,2.88796,.43808,6.52608,.22919,3.14091,.32568,4.19677,.43782,6.41569,.13213,2.61675,.19645,3.94642,.10953,4.97765-.12807,1.51917-.34394,2.23544-.21905,3.76098,.07939,.9698,.32858,2.65471,.32858,2.65471,.28541,.17008,1.11757,.61485,1.97089,.33206,.36045-.11967,.87013-.41724,1.53308-1.7701,.69714-1.42239,.86375-2.58285,1.09497-3.87138,.44245-2.46144,.55372-2.22616,.87621-4.09275,.19442-1.1254,.72612-4.521,.54734-8.95971-.215-5.3494-1.2036-5.79707-.65687-9.07069,.113-.6757,.12141-.45433,1.86166-5.5305,.94082-2.74453,1.97959-5.45371,2.95663-8.18549,.82232-2.29947,1.33984-3.78039,2.8471-4.97765,.27613-.21963,1.18567-.92779,2.409-1.21667,2.69556-.63659,4.10492,1.92279,7.44605,3.31824,5.30014,2.21371,10.83325-.22398,11.55241-.55285,2.11374-.96748,1.58842-1.39197,5.53023-4.09304,1.90712-1.30707,5.00515-3.40227,9.25262-4.97736,2.60661-.9669,4.87653-1.80863,7.99368-1.88049,2.02247-.04665,7.04126-.16255,10.51249,3.09716,2.51939,2.36583,3.01893,5.37838,3.83255,10.28736,.82753,4.9933,.15678,7.09661,1.42355,13.93707,.53633,2.89607,1.22739,5.60149,2.18997,5.64147,.50356,.02086,.94775-.69309,1.20476-1.10598,.84926-1.36589,.76845-2.77959,.76639-3.76127-.00522-2.17923,.37813-1.50265,.76639-5.5305,.13126-1.3601,.17269-2.32178,.21905-8.51726,.04114-5.49341,.02205-6.54521,.87621-7.96441,1.10975-1.84369,2.78481-2.79814,3.50397-3.20755,1.12108-.6389,2.91635-1.66173,5.2561-1.32764,1.78751,.25527,3.12237,1.23174,4.38018,2.43363,4.55809,4.35642,6.58925,10.11061,7.11747,11.66976,1.65912,4.89681,2.12591,8.6462,2.79234,14.26942,.76958,6.48987,.89215,11.84564,.98548,15.92854,.12051,5.25726-.05885,5.91326,.16455,10.9506,.17414,3.92904,.29844,3.87341,.65687,10.61912,.13531,2.54576,.44448,5.08312,.49287,7.63236,.04086,2.17401,.83159,4.29615,.82119,6.47103-.00177,.35234-.01973,1.37169,.57484,1.74199,.47201,.2941,1.08686,.02811,1.14974,0,.57574-.25788,.79218-.92025,.90348-1.32735,.77969-2.84826,.49284-8.93219,.49284-8.93219-.09388-1.99436,.01014-3.87369,.21905-7.63236,.16458-2.96387,.29468-3.46485,.43782-5.97324,.2318-4.06377,.12923-6.94912,.10953-8.29589-.12341-8.46105,2.12968-17.48103,2.8471-20.35305,1.81066-7.24757,2.81726-11.10127,6.0225-15.26472,3.5144-4.56504,7.3655-6.50841,8.32226-6.96883,2.78568-1.34097,5.07678-1.68578,5.69421-1.76981,2.37075-.32249,6.07726-.82666,8.54131,.99559,4.23531,3.13193,1.42993,10.64549,4.59894,12.05687,.6343,.28251,1.37487,.26165,7.88444-3.31853,6.31717-3.47442,7.02851-4.23009,9.52676-4.81162,3.28086-.7635,6.07755-.39609,7.71986-.16603,6.20246,.87013,7.01026,3.39763,9.85505,2.655,4.43552-1.15814,4.42191-7.812,8.54131-8.29618,2.22008-.26107,4.38916,1.41689,5.42039,2.65471,1.60523,1.92656,1.47397,4.01162,3.94237,9.45751,.39464,.87186,.75683,1.60928,1.47803,1.82515,1.52265,.45549,3.63668-1.71562,4.76352-3.48427,1.69566-2.66195,.92083-4.04552,2.62805-5.8075,1.42587-1.47136,3.24348-1.8237,4.1064-1.99089,.37549-.07302,4.41666-.8003,7.39125,1.65912,2.60023,2.15025,3.0479,5.6293,3.66826,10.45309,.35092,2.72715,.07592,3.28898,.65716,5.64118,.5656,2.2902,1.15032,3.06963,1.80689,5.97324,.33611,1.48817,.4778,2.58922,.6569,3.98235,.36592,2.84739,.43575,5.02778,.49284,6.96854,.05302,1.80313,.09417,3.20842,0,5.14368-.15618,3.21016-.49284,5.64118-.49284,5.64118-.40597,2.93171-.83684,4.29615,0,5.47544,.48183,.67918,1.34384,1.24101,1.47828,1.32764,.72383,.46505,1.34909,.86723,1.8066,.66353,.56647-.25208,.52068-1.27259,.65716-3.1525,.17878-2.46405,.34394-1.90135,.49287-4.14809,.20456-3.08905-.15502-3.45008,0-5.80721,.15502-2.36003,.54995-2.50143,.98545-5.30971,.50533-3.25913,.40594-5.85589,.32858-7.63207-.1724-3.95888-.73945-4.51086-.65716-7.96441,.04926-2.0697,.29439-3.60075,.49287-4.81162,.81887-4.99706,1.394-8.50799,4.10637-10.45309,1.24043-.88983,2.52809-1.16538,3.28521-1.32735,1.20247-.2573,3.73403-.79943,5.58439,.4975,1.61566,1.13264,1.9283,3.11773,2.29947,5.47573,0,0,.29497,1.87238-.164,8.13015-.0171,.10489-.08258,.57458,.21905,.99559,.03738,.05216,.4193,.5711,.87592,.4975,.33379-.0536,.51808-.39377,.73916-.80203,.28367-.52358,.37726-.9869,.41058-1.16133,.19558-1.01558,.21355-1.83848,.21909-2.04623,.02898-1.11844,.11819-.90779,.27378-2.87608,.11561-1.46412,.08722-1.84862,.16429-3.31853,.16719-3.19625,.26313-4.81046,.87592-5.59975,.49374-.63601,1.25984-1.03239,2.79205-1.82515,1.53684-.79479,2.16129-.81073,2.50491-.78813,1.1141,.07273,1.87643,.71424,2.05318,.87099,.88519,.78378,1.10888,1.8124,1.35517,2.94533,.21413,.98516,.05071,.93706,.36972,3.27681,.03709,.27266,.1582,1.12482,.53372,2.15691,.34281,.94256,.59805,1.20971,.8623,1.36908,.04781,.02869,.70844,.41261,1.3552,.1243,.08982-.03999,.31435-.15299,.57483-.49779,.49345-.65281,.55864-1.39892,.57487-1.61769,.20254-2.70686,.1385-3.89108,.53401-5.26798,.17559-.61225,.63166-2.20038,1.47831-2.28151,.55259-.05273,1.18653,.5456,1.43688,1.16162,.38334,.94198-.23644,1.6652,.24658,2.28122,.246,.3138,.67512,.46853,1.02659,.45636,1.0886-.03767,1.85615-1.69331,2.34062-2.73758,.86665-1.86977,.59892-2.50549,1.39603-3.31853,.40826-.41637,.96111-.74205,2.54605-1.07846,2.34612-.49808,3.26232-.23557,5.42039-.41492,3.39676-.28164,3.65497-1.14104,5.99526-.82956,.96053,.12778,2.54373,.36074,3.5315,1.57625,.6615,.81362,.5543,1.4505,.98545,2.82074,.11011,.35031,1.01732,3.15888,2.54605,4.31412,2.43392,1.83935,7.09603-.01941,9.60876-1.60407,3.28202-2.0697,3.51759-4.06377,6.78918-4.97765,.89128-.2489,2.60545-.70352,4.38018,0,1.41283,.5598,2.31309,1.63478,3.72302,3.31853,1.90831,2.27861,1.85354,3.00444,2.73761,3.20784,1.74572,.40102,2.58716-2.28672,5.36559-2.54431,1.456-.13502,3.2232,.41782,4.16113,1.65912,1.06107,1.40501,.76437,3.2997,.32858,6.08392-.28106,1.79357-.48418,1.58784-.76639,3.53961-.17472,1.20711-.22601,2.46405-.32858,4.97765-.08055,1.97408-.051,2.25224,0,2.54402,.26657,1.52902,.85882,1.94916,1.31374,3.42922,.25122,.81652,.10402,.79566,.32858,3.53961,.32742,3.99742,.5485,2.92968,.65719,5.19902,.0527,1.10135,.02923,1.95525,.65712,2.65471,.36654,.40826,1.0489,.86839,1.53279,.66382,.24111-.10228,.46273-.3816,.76668-3.09745,.10924-.97588,.17936-1.82312,.21876-2.32294,.16548-2.09288,.11043-2.12127,.21905-2.76539,.12546-.74437,.26947-1.12163,.87621-2.87579,.68092-1.96829,1.02109-2.95199,1.09468-3.20784,.15415-.53459,.38048-1.45542,.43811-5.4201,.03999-2.74163-.0565-3.10643,0-5.75187,.06085-2.8245,.20025-3.7943,.54763-4.86725,.83014-2.56373,2.02682-3.18727,2.29947-3.31853,.51982-.24977,.96487-.28801,1.53337-.33177,.4042-.031,2.67325-.20485,4.27037,.8849,1.46962,1.00283,1.80602,2.69064,2.409,5.97324,.27961,1.52091,.45607,3.10933,.54763,6.52637,.07331,2.73091,.01565,3.77547,0,7.30059-.03651,8.20752,.2544,7.39244,0,9.29148-.20109,1.5015-.80957,5.19844-.84865,7.79839-.01887,1.2413,.11963,.42565,.32854,3.06963,.04462,.56444,.07939,1.12076,.49258,1.57596,.47317,.52097,1.1376,.57487,1.23203,.58095,.625,.04086,1.07875-.25614,1.31403-.41492,1.00229-.67628,1.27723-1.85905,1.39635-2.40581,.13412-.61688,.07472-.82985,0-2.65471-.07711-1.87238-.11333-2.82711,0-3.73345,.1008-.80667,.25611-1.40877,.49258-2.32265,.28508-1.10135,.51456-1.72026,.82112-2.65471,.32133-.97994,.83159-2.53533,1.14974-3.98235,.40652-1.84688,.45114-3.29274,.49316-4.64559,.08837-2.86072-.27555-3.36286,.16404-5.14368,.25031-1.01297,.40996-1.0208,.82112-2.57155,.48389-1.8237,.32278-2.03927,.73945-3.48456,.42941-1.49048,.75625-2.62428,1.7246-3.48427,.45636-.40536,1.04311-.73916,2.46376-1.07846,2.71643-.64904,5.30246-1.2668,7.30928,0,1.56524,.98776,1.00196,2.00132,2.95663,4.31383,.89649,1.06078,2.6069,3.08441,5.09181,3.6503,2.69701,.61427,3.11541-1.21493,8.7056-1.99089,.9782-.13589,2.1358-.24368,3.43878-.99066,.01478,.45984,.02955,.93532,.04375,1.48092,.17849,6.91783-.11528,6.41569,.07563,12.32953,.10518,3.25218,.30457,6.11029,.70352,11.8271,.01159,.16545,.25064,3.55178,.69598,7.83229,.89533,8.6065,1.15843,6.74543,1.12511,7.08618-.01213,.12488-.08316,.74032,.27237,1.14278,.03187,.03622,.28309,.3138,.51634,.2515,.17501-.04665,.2686-.26599,.32307-.44854,1.18132-3.94961,1.01066-6.26589,1.01066-6.26589-.15846-2.14735-.40594-5.50645,.16748-8.91741,.45868-2.72744,.97849-2.73062,1.31634-5.34564,.26396-2.04391,.09623-3.20002-.2431-6.87697-.85911-9.30655-.57806-10.50496-.01681-11.61529,.95618-1.89179,1.60088-1.30128,3.57699-4.29297,.67686-1.02485,1.38299-2.13982,1.95235-3.4014,1.59831,1.55597,1.99784,6.58172,1.95959,9.5227-.04028,3.09078-.57023,4.87624,.49287,5.64147,.87099,.62702,2.40697,.27758,3.28521-.49779,.72699-.64209,.9556-1.53453,1.14974-4.48015,.2104-3.19683-.76726-4.44509,.16404-5.80692,.06052-.08866,.8753-1.25057,1.80686-1.16162,1.04977,.10025,2.0132,1.76604,3.03863,6.5539,1.40877,6.57534,.88871,9.48793,1.66984,17.007,.59631,5.7368,1.02485,5.25262,1.20479,9.29177,.23093,5.18888-.4439,6.71529,.49258,10.78486,.43202,1.87556,.62963,1.78777,1.80693,6.13898,.18396,.67976,.71623,2.66833,1.64257,5.14368,1.2158,3.25044,1.76053,3.73114,2.29947,3.81603,.94459,.14922,1.95293-.90374,2.409-1.76981,.33553-.63716,.5456-1.5015,0-4.64559-.33119-1.91034-.49805-2.10795-.87621-3.98235-.21873-1.08628-.63166-3.17539-.7661-5.75187-.09446-1.80834,.07128-1.50323,0-4.75657-.04288-1.94453-.11155-2.49824,0-3.6503,.16748-1.73098,.53952-2.71353,.7661-3.6503,.62528-2.58198,.09938-4.62212-.32829-6.96854-.34162-1.87528-1.71008-9.92459-.76639-17.25589,.15009-1.16538,.64962-3.1157,1.6426-6.96854,.09069-.35263,.17472-.66904,.26252-1.00689,.01883,.05998,.02695,.09533,.04694,.15849,.05683,.17965,.17791,.54618,.49779,.68353,.01275,.00551,.30511,.12575,.53691-.00782,.34944-.20109,.32423-.84086,.3251-1.18827,.0029-1.27983,.36045-1.08512,.54564-2.86855,.14919-1.43949-.09884-1.42065,.00228-3.30462,.01941-.36161,.05071-.67078,.08258-.98197,.94836-3.3533,1.66434-5.7313,2.23196-7.89342,.34278-.94633,.37233-1.23956,.75745-1.82225,.65654-.99327,1.47219-1.5296,1.97611-1.85325,.43517-.28019,1.60812-.97328,4.15588-1.3175,2.02102-.27295,3.89514-.60239,6.00772,.13589,1.23116,.42999,1.01877,.67744,2.65471,1.29345,1.70954,.64354,3.26522,1.22913,4.6227,.5995,.4862-.22572,.26483-.29091,2.17169-1.80689,1.1309-.8991,1.56031-1.15582,2.0358-1.06484,.56936,.10895,.94057,.67512,1.18798,1.16683,1.20425,2.39161,.97675,5.93296,.88403,8.16231-.14661,3.5202-.21992,5.28015,.0197,7.48429,.21036,1.93294,.49316,2.95373,.71656,5.80982,0,0,.01739,.22514,.2431,3.39966-.01507,.13242-.08751,.87911,.40971,1.37516,.09305,.09243,.30917,.3083,.63948,.33611,.36972,.03129,.64875-.19269,.72902-.2573,.3874-.3109,.47374-.78697,.60674-1.98132,.12894-1.15437,.19326-1.73127,.21152-2.3212,.00637-.20428,.01043-.84318,.01912-2.12127,.00348-.52416,.00493-.88635,.07823-1.38212,.08722-.5937,.22398-1.01935,.27613-1.18769,.18983-.61601,.3376-1.61392,.63282-3.60944,.31699-2.14474,.47577-3.21712,.48421-3.75548,.0188-1.18103-.11101-1.52323-.04346-3.10672,.0553-1.30533,.17758-1.87441,.40532-2.42262,.14661-.3535,.46013-1.10801,1.09961-1.64347,1.35836-1.1367,3.57989-.77625,4.97852-.12083,1.41254,.66237,1.20856,1.26071,3.16062,2.51939,1.73214,1.11728,1.90773,.65542,3.24609,1.67998,.54995,.42072,2.13638,1.63478,2.83377,3.60886,.1611,.45607,.17008,.65542,.4071,1.17813,.45665,1.0066,1.08106,1.71417,1.64434,2.3438,.82174,.91822,.90461,.80174,1.14017,1.21667,.45727,.80522,.32278,1.55829,.23325,2.70947,0,0-.2008,2.58749,.12749,5.57135,.11445,1.04195,.27729,1.89266,.37494,2.36235,.23876,1.14974,.50156,2.00798,.67049,2.55503,.52097,1.68723,.55372,1.28331,.81391,2.30643,.16487,.64847,.30163,1.39979,.8568,1.9112,.18834,.17356,.36596,.26483,.54068,.23876,.22253-.03303,.38711-.2489,.52909-.54995,.31931-.67657,.33321-1.37545,.3083-2.37191-.02898-1.17813-.04375-1.76691-.1301-2.31628-.15849-1.00776-.29815-1.01355-.41811-1.96684-.13995-1.11236-.04984-1.90135-.02926-2.07115,.08461-.69338,.23151-1.03963,.41579-1.68288,.16197-.56444,.68353-2.38408,.62181-4.39873-.03303-1.07759-.20572-1.31403-.07997-2.21834,.08229-.59225,.19529-1.33807,.75249-2.0329,.59457-.74119,1.36386-1.00167,1.69335-1.10946,0,0,.7962-.26078,1.65763-.17153,1.77647,.18312,2.41363,1.77705,4.0432,2.80248,2.60081,1.63652,6.08508,.79131,8.20665,.27671,1.31634-.31902,2.98589-.91735,3.59727-1.1367,2.1911-.78523,2.51132-1.07469,3.40053-1.23232,.35234-.06288,3.69057-.58153,5.19381,1.3062,.43521,.54647,.56878,1.10888,.70989,1.86426,.63369,3.38807,.59834,6.23807,.58965,7.19251-.01825,1.96452-.03734,4.06638,.09272,6.6078,.04897,.9527,.19008,2.57271,.4723,5.8133,.24397,2.79727,.34336,3.73751,.47114,5.71449,.15067,2.33163,.2246,3.51585,.15994,4.43668-.09504,1.35604-.27874,1.99755-.14806,3.3562,.08287,.86375,.32626,2.36264,.32626,2.36264,.25672,.14806,1.00399,.53401,1.7614,.27063,.31989-.11098,.77049-.38276,1.34474-1.5974,.60384-1.27723,.73771-2.31396,.92779-3.46601,.36364-2.20038,.46563-1.99205,.72989-3.66044,.15936-1.00602,.5908-4.04001,.37552-7.99542-.25875-4.76671-1.14597-5.15324-.69946-8.07887,.09214-.60413,.10257-.40681,1.59045-4.95505,.80464-2.45913,1.69683-4.88783,2.53359-7.33594,.70439-2.06101,1.14713-3.38807,2.47593-4.47435,.24368-.19935,1.04572-.84289,2.13286-1.11584,2.39538-.6021,3.68391,1.66202,6.68056,2.86333,4.75334,1.90599,9.65624-.33814,10.29311-.64093,1.87238-.88954,1.39892-1.26129,4.87913-3.71984,1.68462-1.18972,4.42046-3.09774,8.18781-4.55635,2.31197-.89533,4.32513-1.67506,7.10356-1.77908,1.80284-.06751,6.27574-.23499,9.41173,2.62689,2.276,2.07723,2.75931,4.75715,3.54599,9.12313,.80063,4.4419,.2289,6.32558,1.44412,12.40834,.5146,2.57532,1.16455,4.97852,2.02334,5.00199,.44941,.01217,.83627-.63021,1.0602-1.00167,.74032-1.22884,.65049-2.4881,.6363-3.36286-.03187-1.94308,.31844-1.34503,.61398-4.94143,.09996-1.21435,.12488-2.07202,.08837-7.59672-.03216-4.89826-.0623-5.8359,.68121-7.11196,.96665-1.65825,2.44811-2.53069,3.08412-2.90505,.99124-.58385,2.57966-1.51888,4.66964-1.25086,1.59711,.20485,2.79958,1.05817,3.93599,2.11374,4.11883,3.82589,6.00192,8.93016,6.49247,10.31372,1.54061,4.34483,2.00368,7.68191,2.66862,12.68708,.76755,5.7765,.94401,10.55016,1.07846,14.18916,.17327,4.68616,.02144,5.2732,.28367,9.76146,.20456,3.50107,.31467,3.44979,.71916,9.45982,.15241,2.26818,.46013,4.52651,.53517,6.79874,.06375,1.93815,.79508,3.8198,.81304,5.75911,.0029,.31409-.00025,1.22304,.53459,1.54583,.42424,.25614,.96922,.0113,1.02514-.01478,.50996-.23731,.69454-.83072,.78871-1.19494,.65948-2.54953,.32742-7.97021,.32742-7.97021-.10866-1.77734-.03936-3.45413,.09972-6.80801,.10919-2.64486,.2193-3.09281,.3155-5.33144,.15589-3.62596,.02811-6.19751-.00637-7.39824-.2164-7.54225,1.6794-15.613,2.28325-18.1831,1.52323-6.48523,2.37278-9.93386,5.17845-13.68731,3.07601-4.11477,6.48552-5.89703,7.33275-6.31978,2.46666-1.23116,4.50506-1.56785,5.05472-1.65072,2.10968-.31786,5.40793-.81478,7.62772,.77827,3.81545,2.73845,1.40848,9.47344,4.25186,10.69127,.56874,.24339,1.2288,.21558,6.98791-3.05978,5.58903-3.17858,6.21402-3.86153,8.43381-4.41205,2.91577-.72264,5.41402-.43115,6.88103-.24658,5.54093,.69627,6.29312,2.93924,8.82034,2.24094,3.94005-1.08947,3.84443-7.02185,7.51124-7.50632,1.97611-.26107,3.93136,1.20711,4.86614,2.29773,1.45509,1.69708,1.36473,3.55787,3.63349,8.38195,.36302,.77219,.69507,1.42529,1.34093,1.60841,1.36299,.38653,3.22088-1.57625,4.20343-3.16757,1.47831-2.39509,.77016-3.619,2.27025-5.21148,1.25284-1.33025,2.86908-1.66752,3.63605-1.82776,.33437-.06983,3.92817-.77016,6.61127,1.38472,2.3453,1.88368,2.78799,4.97997,3.40169,9.27293,.34683,2.42696,.10895,2.93171,.65658,5.0214,.53314,2.03464,1.06397,2.72222,1.68582,5.30275,.31839,1.32272,.45834,2.30237,.63567,3.54193,.36219,2.53446,.45172,4.47725,.52677,6.20707,.06983,1.60696,.1243,2.85956,.06432,4.58591-.09852,2.8642-.36827,5.03618-.36827,5.03618-.32535,2.61936-.69222,3.84124,.06838,4.88203,.43811,.5995,1.21377,1.08918,1.33489,1.16451,.65107,.40565,1.21377,.75596,1.61913,.56878,.50185-.23209,.44825-1.14133,.54618-2.81929,.12865-2.19893,.2828-1.69969,.3874-3.70477,.14372-2.7567-.18134-3.07398-.07273-5.17758,.1087-2.10621,.45897-2.23718,.81217-4.74672,.40971-2.91259,.2883-5.22655,.19732-6.80917-.20341-3.52744-.71598-4.01249-.68584-7.09255,.01796-1.84601,.21731-3.21422,.37904-4.29644,.66754-4.46595,1.13636-7.60367,3.53029-9.37261,1.09497-.80899,2.23949-1.0715,2.9123-1.22565,1.0689-.24484,3.3194-.76031,4.98547,.37262,1.45484,.98892,1.75822,2.75467,2.11896,4.85219,0,0,.28627,1.66607-.04458,7.25133-.01395,.0933-.0664,.51344,.20771,.88461,.03419,.04607,.38131,.50388,.78755,.4326,.29704-.05245,.45694-.35784,.64875-.72438,.24658-.47056,.32394-.88519,.35147-1.04108,.16168-.90779,.16748-1.64174,.16979-1.82718,.01159-.99762,.09417-.81102,.20804-2.56778,.0849-1.30707,.05447-1.64927,.10489-2.96069,.10928-2.85203,.17443-4.29268,.71076-5.00431,.43202-.57342,1.11033-.93648,2.46666-1.66289,1.3601-.72844,1.91671-.75046,2.22356-.73481,.99385,.05071,1.68172,.61283,1.84166,.75046,.79885,.68729,1.01123,1.60175,1.24506,2.60864,.20312,.87563,.05679,.83478,.37059,2.91664,.03651,.24281,.15506,1.00109,.50301,1.91671,.31757,.83564,.54821,1.07092,.7861,1.20942,.04288,.02492,.63659,.35871,1.20971,.09359,.07968-.0368,.2785-.14082,.5062-.45143,.43202-.5882,.4807-1.25434,.49229-1.44963,.1469-2.41624,.07476-3.47123,.41004-4.70383,.14889-.54792,.53571-1.97002,1.2894-2.05289,.49224-.05418,1.06508,.47114,1.29602,1.01703,.35321,.83507-.19008,1.48788,.24803,2.03116,.22344,.27642,.6079,.40884,.92141,.39348,.97009-.04752,1.63362-1.53308,2.0526-2.47072,.7493-1.67795,.50243-2.24152,1.20305-2.97662,.35871-.37639,.84757-.67396,2.25659-.99414,2.08539-.47403,2.90539-.25208,4.82756-.43926,3.02501-.29468,3.24435-1.06426,5.33491-.81652,.85796,.1017,2.27253,.28917,3.16844,1.36039,.59979,.71685,.51262,1.28592,.91417,2.5023,.10262,.3109,.94662,2.80335,2.32381,3.81372,2.19342,1.60899,6.32703-.10779,8.54739-1.55307,2.90013-1.88744,3.08557-3.66826,5.99091-4.52506,.7916-.23325,2.31396-.66034,3.90528-.05592,1.2668,.48128,2.08274,1.4279,3.36112,2.91114,1.73016,2.00711,1.69012,2.655,2.48115,2.82508,1.56147,.33524,2.27774-2.07202,4.75193-2.33685,1.29635-.13908,2.87927,.3309,3.73085,1.42587,.964,1.23898,.72293,2.932,.36914,5.4201-.22775,1.60291-.41174,1.42181-.6389,3.16583-.14053,1.07846-.17037,2.1998-.23035,4.44248-.04689,1.76111-.01739,2.00856,.03158,2.26818,.2573,1.35981,.79044,1.72692,1.21493,3.04066,.23383,.72467,.10257,.70786,.33727,3.15163,.34162,3.55989,.52561,2.60516,.65078,4.62705,.06114,.98139,.05104,1.74315,.6192,2.35858,.33206,.35958,.94604,.7606,1.37516,.57197,.21355-.09388,.40768-.34596,.64441-2.77119,.08519-.87157,.13734-1.62783,.16632-2.07376,.12112-1.86861,.07157-1.89295,.16052-2.46869,.10257-.66527,.22601-1.0037,.745-2.57532,.58264-1.76343,.87356-2.64515,.93614-2.87405,.13039-.47838,.32076-1.30273,.32278-4.83828,.00116-2.44464-.08982-2.76887-.07244-5.12861,.01854-2.51881,.13097-3.38517,.42743-4.34628,.70753-2.29657,1.76715-2.86797,2.00851-2.98821,.46042-.22919,.85651-.26918,1.3627-.31554,.36016-.03274,2.38118-.21702,3.81893,.73452,1.32277,.87505,1.64376,2.37568,2.22269,5.29493,.26802,1.35227,.44535,2.76626,.56994,5.81156,.09967,2.43392,.06143,3.36634,.09156,6.50928,.07041,7.31856,.3196,6.5878,.11648,8.28459-.16023,1.34126-.65629,4.64501-.6589,6.96361-.00116,1.10714,.11213,.37813,.33148,2.73294,.04694,.50272,.0849,.9982,.45926,1.39892,.42796,.45839,1.02113,.4975,1.1054,.50214,.55748,.0284,.95884-.24194,1.16654-.38682,.88519-.61601,1.11526-1.67361,1.21464-2.163,.11213-.55169,.0565-.74061-.03332-2.36698-.09214-1.66839-.13618-2.5191-.04694-3.32838,.07997-.7209,.21099-1.25955,.41029-2.07752,.2402-.98545,.43753-1.54032,.69893-2.37742,.27435-.87766,.70956-2.27079,.97526-3.56511,.33901-1.65188,.36103-2.94156,.38102-4.14867,.04322-2.55156-.28772-2.99459,.082-4.58822,.21041-.90634,.35292-.91533,.70009-2.30353,.40821-1.63188,.26189-1.82196,.61539-3.11599,.36422-1.33431,.64151-2.3496,1.49401-3.12874,.40184-.36712,.92078-.67251,2.18323-.99327,2.41392-.61312,4.71166-1.19697,6.51681-.09359,1.40791,.86114,.91851,1.77183,2.69035,3.80879,.81275,.93416,2.36293,2.71643,4.58562,3.1893,2.41219,.51315,2.7625-1.12308,7.73696-1.88658,.87302-.13387,1.90691-.24397,3.06302-.93155,.76606-.45607,.83241-.71714,2.17396-1.65912,.88403-.62065,1.61073-1.0376,2.17778-1.36299,.7479-.42883,1.43485-.82463,2.32671-1.21696,1.61827-.71163,2.42725-1.06774,2.91635-.92981,1.93873,.54676,2.46492,5.88428,2.46811,8.84265,.0029,2.75641-.44738,4.35497,.51025,5.02343,.78441,.54821,2.14938,.21673,2.92278-.48562,.64035-.58182,.8327-1.38038,.96859-4.00901,.14777-2.85319-.73945-3.95367,.07389-5.1799,.05278-.07968,.76466-1.12598,1.59624-1.05846,.93735,.07563,1.81703,1.54843,2.79176,5.80431,1.33812,5.84459,.91098,8.4483,1.702,15.14215,.60355,5.10746,.97936,4.66993,1.19059,8.26894,.27097,4.62386-.31177,5.99323,.57458,9.60963,.40855,1.66694,.58356,1.5861,1.68781,5.45053,.17269,.60384,.67222,2.36988,1.52907,4.56504,1.12506,2.88274,1.61619,3.30404,2.09805,3.37329,.84405,.12083,1.72982-.83072,2.12591-1.60899,.2912-.57197,.46737-1.34561-.05824-4.1423-.3196-1.69882-.47085-1.87267-.8313-3.53903-.20862-.96574-.60326-2.82305-.75538-5.11876-.10663-1.61102,.04462-1.34126-.05969-4.24081-.06225-1.7333-.13068-2.22616-.04578-3.25478,.12778-1.54554,.44714-2.42638,.63745-3.26435,.52537-2.31019,.03042-4.12259-.37986-6.2091-.32858-1.66781-1.64927-8.82672-.89992-15.37569,.11904-1.04108,.54005-2.78626,1.37714-6.2343,.33495-1.38096,.64615-2.62486,.9388-3.77402-1.23579,.43608-2.68745,.71714-4.28336,.53169-2.26562-.26367-4.09482-1.36821-5.42595-2.17198-2.43826-1.47223-2.20791-2.07347-3.99278-2.99893-3.64595-1.89034-7.50603-.88345-8.08785-.72409-2.40784,.66006-2.9178,2.07723-5.52847,3.41299-4.34135,2.22124-11.87607,6.07639-16.58541,3.20582-1.80602-1.10106-1.95814-2.43652-4.60706-3.61958-1.3627-.60877-2.66746-.75886-5.22104-1.03412-5.06371-.54618-6.0025,.14285-9.11183-.72409-2.13398-.59486-2.78828-1.11149-4.91419-1.65448-2.73903-.70004-4.33208-.52677-8.94088-.44825-8.13073,.1385-12.19624,.20746-15.152-.75828-.49808-.16284-2.26818-.77335-4.77772-1.31026-.21529-.04607-1.70543-.36219-3.13946-.5514-4.4616-.58878-5.73477,.40189-9.24831,.06896-2.11403-.20051-3.72993-.82319-6.96187-2.06825-4.56881-1.76053-4.73658-2.60197-7.16644-3.10266-2.60081-.53575-4.42509,.01304-9.00921,1.24101-3.88012,1.03934-7.79119,1.95901-11.67097,2.99922-4.6044,1.23434-11.15748,2.02942-24.26383,3.61958-3.74562,.45433-6.62837,.76668-10.51075,.55169-.71134-.03941-4.14201-.24542-8.73631-1.24101-3.05457-.66208-5.67653-1.4986-10.92017-3.17163-5.5644-1.77502-6.17172-2.12968-7.91747-2.06854-2.52717,.08866-4.40394,.97965-8.05366,2.75815-6.08537,2.96474-5.39663,3.77692-8.32689,4.6879-4.15012,1.29056-7.96094,.41608-13.37727-.82724-1.99002-.45665-1.22449-.4042-8.32689-2.48202-7.59701-2.2224-9.26511-2.51418-11.32988-2.27513-2.6889,.31119-2.55503,1.11786-7.50772,3.10237-3.46142,1.38733-8.95077,3.5257-15.56146,3.17163-2.97459-.15936-4.70847-.25208-6.68859-1.37893-3.71263-2.11258-3.70423-5.25031-7.09839-6.61881-1.32359-.53343-3.26666-.27092-7.09806,.27584-7.44605,1.06281-7.8392,2.13084-11.19341,1.93062-3.07108-.1837-2.50636-1.06484-9.2825-2.89578-4.67341-1.26274-7.16325-1.90802-10.23781-1.37893-2.33453,.4016-2.8839,1.11526-6.96158,3.17134-6.17317,3.11339-9.67739,4.88058-14.05993,5.24017-3.19625,.26194-6.09377-.28743-11.12499-1.24101-3.59644-.68208-5.5853-1.34445-8.39532-.55169-2.06651,.58298-2.29339,1.3091-5.11872,2.27513-2.61563,.89417-3.91111,.78175-6.75702,1.24101-5.02811,.8116-5.29642,1.85934-9.21411,2.58546-4.67635,.86665-8.4495,.1443-11.36382-.41377-2.4965-.4778-3.95946-1.01268-11.97835-4.34338-6.15984-2.55851-12.5706-4.5465-18.53051-7.54949-2.98908-1.50642-4.57866-2.47941-7.16644-2.48202-3.88586-.00435-4.8745,2.18531-9.3164,2.37857-3.45993,.15009-3.59843-1.14626-7.67843-1.24101-2.81871-.06577-6.84481-.15936-9.21411,2.27513-2.66427,2.73816-.40768,5.77128-3.68565,11.16907-.85998,1.4166-1.9735,3.19481-3.99278,3.82647-2.02392,.6334-3.60365-.30974-6.04017-1.03412,0,0-3.84994-1.14452-9.72578-.72409-7.30121,.52271-7.62917,4.73542-15.66399,5.79156-1.60323,.21065-5.16918,.64238-9.31643-.62065-3.68507-1.12192-3.77576-2.34786-8.08785-4.1365-3.803-1.5777-6.91609-1.94511-11.46636-2.48202-3.81488-.45027-6.41598-.73626-9.82839-.10344-2.38176,.44158-2.21805,.78552-5.01648,1.34445-1.03036,.20572-4.74034,.89562-9.62353,.51692-.97675-.07563-3.66507-.32336-7.06415-1.24101-4.14867-1.11989-4.39786-1.8999-7.88328-2.89549-1.87151-.53488-5.74607-1.64202-10.44237-1.10309-4.15244,.47606-5.12249,1.80023-9.14602,1.51656-1.99784-.14082-4.15037-.63601-4.98229-.82724-2.79756-.64354-4.79105-1.39718-5.11876-1.51685-5.7698-2.10447-21.1206,.53836-21.9774,.68961-20.21165,3.56337-25.06326,5.44444-32.35139,4.1365-1.0037-.18023-3.62856-.70352-7.50776-1.24101-6.09464-.84463-9.14193-1.26709-12.59262-1.13757-4.73223,.17733-6.04191,1.02543-9.52125,.20688-2.2337-.52561-2.52838-1.0715-5.4259-2.17169-1.21232-.46042-6.53014-2.4797-10.95465-2.27542-4.74092,.21934-5.23582,2.84334-11.67092,5.79156-2.43739,1.11641-11.35335,5.20134-20.27105,2.6889-1.68114-.47374-.71685-.43666-10.64723-4.75715-7.09107-3.08557-8.01222-3.29129-9.21411-3.30955-1.62-.02434-3.46833,.29642-12.69488,5.79156-7.19602,4.28543-8.96438,5.81301-11.87581,5.37751-1.25865-.18805-2.22588-.66759-6.14274-3.92991-9.07967-7.56224-10.12507-10.18565-14.12831-11.37595-3.09858-.92112-3.37909,.38102-10.03295,.82753-10.47772,.70294-11.52112-2.40958-20.40752-1.7927-3.71317,.25759-10.62141,.73742-17.47234,4.96403-4.52651,2.79263-6.34267,5.56411-10.37457,5.51572-3.30839-.0397-3.59959-1.92395-8.73602-3.30926-1.62725-.43897-6.80135-1.76981-12.01254,0-3.42979,1.16451-3.84733,2.64399-7.09835,4.68819-8.84381,5.56179-19.72081,3.39676-22.93271,2.75786-1.76488-.35147-5.18077-1.70519-12.01225-4.41263-10.53133-4.17388-10.29779-4.75889-16.6535-6.89465-8.45323-2.84015-9.14747-1.89932-13.65051-4.41234-3.50049-1.95351-4.94983-3.56482-7.64424-3.30926-3.71346,.35205-4.59489,3.75808-8.19042,3.86095-2.77611,.0791-3.3249-1.92106-6.82511-3.30926-4.4419-1.76227-6.27197,.38276-13.92345,.5514-8.25182,.18167-8.46771-2.26151-13.65051-1.10309-5.99381,1.33981-6.17056,4.71224-11.46636,5.23959-5.25726,.52387-9.67366-2.34265-12.01225-3.86066-5.41286-3.51353-5.5247-6.45191-9.2825-8.82498-1.59335-1.0066-3.74099-1.84485-6.69327-2.01609,.47432,1.01413,1.02746,2.01407,1.80718,2.97083,2.22906,2.73468,3.26002,1.8773,5.37751,4.20343Z" fill="#a7d4eb"/><path d="M17.60498,21.69553c8.56939,1.79414,8.89507-.45781,16.9948,1.44789,8.14609,1.91613,14.94715,5.58439,14.94715,5.58439,3.5179,1.8973,4.69485,3.01893,7.781,3.72331,4.78296,1.09092,8.90698-.0171,11.05665-.62065,5.6096-1.5748,6.07726-3.5457,10.64752-5.17091,2.4542-.87273,4.75048-1.16886,15.35657-.20688,10.99986,.99791,16.49964,1.49686,19.86134,2.48202,8.21273,2.40726,7.55702,4.37352,19.0425,8.68706,8.14435,3.05891,12.21652,4.58851,17.6091,4.34367,4.45407-.20225,6.11724-1.3288,14.74229-2.06825,4.69456-.40276,8.22287-.41348,9.00926-.41377,8.7085-.00232,11.00188,1.22188,16.17599,1.24101,6.43771,.02405,8.36053-1.85094,17.81366-4.55027,8.85598-2.52896,15.64748-3.30462,22.93271-4.13679,15.78453-1.80284,24.71295-2.82276,33.64832,.48244,.81362,.30105,7.43562,2.78655,15.83466,6.20504,4.13882,1.68462,4.40452,1.84369,5.59656,2.20646,5.7849,1.75851,10.6536,1.39313,17.88205,.55169,14.40502-1.67766,14.58699-2.49882,22.52329-2.89578,8.38253-.41927,12.7911,.26628,15.01553,.68932,6.82337,1.29751,6.82105,2.7341,11.87578,3.72302,8.37065,1.63768,15.67674-.87302,27.98338-5.10195,7.81606-2.68571,8.13798-3.57699,12.83141-4.41234,7.10324-1.26419,12.26894-.27353,18.01878,.55169,4.20836,.60384,12.54279,1.13786,29.21193,2.20588,20.34349,1.30359,19.32298,.13676,29.55297,1.58581,9.63454,1.36473,12.39472,2.66282,20.68047,2.6889,3.72534,.01188,4.36946-.24658,17.40425-1.03412,3.62972-.21934,8.97188-.54184,15.15204-.82724,17.07998-.78871,19.27746-.30917,24.16123-2.06854,6.5342-2.35395,6.01612-4.44277,12.89976-7.85981,8.61665-4.27703,16.18526-4.35729,27.84691-4.4813,7.61034-.08084,18.52356-.113,31.66903,3.86095,11.44115,3.45877,12.42544,6.27951,23.47861,8.27329,6.37541,1.15032,13.14547,2.37133,21.29475,.27584,5.59627-1.4392,6.96825-3.18872,13.65051-4.41234,4.84987-.88809,6.17896-.34249,14.46964-.55169,13.49984-.34075,13.26717-1.87151,21.29446-1.37893,8.25967,.50678,8.21853,2.10939,16.92673,2.48202,6.15375,.26338,5.74694-.55516,16.10732-.75828,8.70647-.17066,13.16257-.23035,18.22337,1.03412,5.82749,1.456,6.07668,2.79987,10.44266,3.10266,3.2968,.22832,4.44914-.44825,14.12802-2.89578,10.78196-2.72657,12.82124-2.76452,14.33321-2.6889,5.40967,.27092,7.43963,2.16619,11.67088,3.30926,7.27162,1.96423,10.87034-1.04166,23.34242-4.1365,5.31811-1.31982,30.86182-7.65815,42.38464-.62065,.87795,.53604,3.13686,2.04304,6.55216,2.89578,4.40191,1.09874,7.92501,.41145,11.67121-.20688,8.03656-1.32648,14.58843-1.92077,16.58516-2.06825,6.26236-.46244,10.74338,.29729,18.42823,1.65448,16.11891,2.84739,15.74856,5.52354,27.23259,7.23945,8.59202,1.2836,6.29197-.58907,29.28002,0,8.69951,.22282,12.9183,.5908,20.27105-.20688,6.81033-.73887,11.86071-1.99523,15.97084-3.0337,5.37432-1.35807,12.27158-3.43327,20.14356-6.62779,.04926-1.70026,.02231-3.20292,.00319-4.53404-.09789-6.86654-.14714-10.30011-1.35053-12.70563-3.69289-7.38259-15.61155-8.19274-21.21361-8.57347-10.58435-.71945-19.20824,2.33685-23.95959,4.48681-11.00275,4.97881-10.06396,9.09155-20.31973,13.31266-4.63632,1.90831-11.27541,2.57329-24.55359,3.90354-8.35587,.83709-14.49832,1.00283-21.08873,.3025-4.91709-.52213-8.17448-1.32359-9.39777-1.64058-4.17653-1.08164-7.3977-2.40697-11.18853-3.98235-4.25588-1.76865-5.49829-2.51679-7.6651-3.44138-7.32547-3.12527-11.43477-2.39045-27.01358-4.34715-7.76825-.9756-6.13492-1.08164-11.15516-1.61537-7.20266-.76639-18.27727-1.94395-30.46134,.43695-10.64984,2.08129-8.40136,4.19532-19.24852,6.1949-3.71955,.68584-10.92104,.98168-25.1725,1.54496-11.69961,.46273-13.09998,.37494-14.64494,.21007-9.96747-1.06194-10.8063-3.70796-18.20976-3.28955-4.28771,.24223-10.69123,.60384-15.37598,3.7717-.69512,.47027-3.21219,2.25949-6.79555,2.85956-1.07755,.18081-2.24761,.36509-3.71027,.05331-1.51164-.32249-1.9057-.87013-5.11267-2.49129-1.67733-.84781-2.53649-1.27694-3.537-1.52757-1.39371-.34915-2.8416-.71221-4.29876-.1356-1.63043,.64499-1.56669,1.79183-3.66855,3.01197-.63137,.36625-1.5325,.88925-2.7199,1.02543-2.47564,.28367-4.59576-1.29867-7.46981-3.44399-1.03992-.77625-.95792-.81449-1.97495-1.54988,0,0-2.40668-1.74083-4.92318-2.88883-5.28305-2.40929-13.42189-.81507-16.79837-.15328-1.82573,.35755-4.59547,.91446-7.97567,2.28441-1.80172,.73018-2.50118,1.17465-5.82203,2.64833-2.49766,1.10859-4.33208,1.92308-5.8246,2.45101-7.19165,2.54518-14.45834,1.2836-19.1332,.47201-.83333-.14488-1.99233-.40478-4.30977-.9246-8.37876-1.87991-14.77384-3.69521-16.8569-4.29557-16.37331-4.7218-14.94106-6.09986-21.3808-6.59852-3.67521-.28454-2.09259,.32278-14.83472,.60761-4.57576,.10228-7.20353,.07794-10.52495,1.53192-.10808,.04723-.18718,.09243-.28888,.13937-5.49022-5.35462-15.90246-6.23199-21.23158-6.67096-5.72434-.47201-10.93321,.06143-15.411,.99066-4.53292-1.015-7.22269-1.2581-9.04494-.11242-1.17436,.73829-2.69788,2.23138-3.59466,4.28109-11.21659,5.18569-10.68544,9.66497-21.88265,14.08745-5.22883,2.06535-12.68415,2.70426-27.59479,3.98206-9.38307,.80435-16.27338,.89128-23.65246,0-5.50529-.66469-9.14519-1.61595-10.5122-1.99089-4.6662-1.28012-8.25739-2.81813-12.48342-4.64588-4.74411-2.05173-6.12565-2.91027-8.54099-3.98206-8.16496-3.62277-12.78476-2.86478-30.22291-5.30942-8.69546-1.21928-6.8622-1.31171-12.48339-1.99118-8.06467-.97502-20.46461-2.4739-34.16466,0-11.97487,2.16242-9.48674,4.5691-21.68156,6.63677-4.18196,.70931-12.26202,.92489-28.25166,1.32764-13.12667,.33032-14.69567,.20949-16.42549,0-11.16009-1.35169-12.05919-4.33208-20.36754-3.98235-4.81191,.20254-11.99805,.50533-17.30138,3.98235-.78668,.51576-3.63755,2.48173-7.66539,3.09687-1.21116,.18544-2.52606,.37349-4.16084,0-1.69041-.38566-2.12359-1.00631-5.69421-2.87579-1.86745-.97762-2.82392-1.47252-3.94208-1.76981-1.55742-.41406-3.1751-.84434-4.81829-.22137-1.83848,.69714-1.78487,1.98451-4.16113,3.31853-.71395,.40073-1.73243,.9727-3.06587,1.10627-2.78075,.27816-5.13325-1.53047-8.32226-3.98235-1.15379-.88693-1.06133-.92837-2.19024-1.76981,0,0-2.67093-1.9906-5.47515-3.31824-5.88602-2.78684-15.03752-1.13003-18.83417-.44245-2.05289,.37175-5.16773,.95184-8.97942,2.43334-2.03203,.78986-2.82334,1.27665-6.57013,2.87608-2.81842,1.20305-4.88841,2.0865-6.57013,2.65471-8.10465,2.73787-16.23336,1.20653-21.4628,.22108-.93213-.1753-2.22732-.48562-4.818-1.10598-9.36565-2.24297-16.50833-4.38134-18.83446-5.08834-18.28567-5.55802-16.65784-7.08009-23.87151-7.74304-4.11651-.37813-2.35163,.32829-16.64423,.44245-5.13267,.04114-8.07916-.0284-11.82652,1.54872-3.76214,1.58321-4.00116,3.00299-6.78918,3.53961-4.09391,.78784-6.47857-1.7162-12.48339-4.42451-.74899-.33814-5.91152-1.70461-16.20612-4.42451C12.25208,.25127,7.80351-.875,5.04913,.80267,3.60733,1.68033,1.6515,3.51156,.66924,6.11208,.10162,7.61387,.06424,8.82996,.01208,11.20042c-.02982,1.35981-.03622,3.45906,.37523,6.0987,1.06803,.03303,2.15981,.10228,3.29419,.25962,5.82373,.80754,6.73355,2.63153,13.92348,4.13679Z" fill="#fff"/></svg>